<svg width="80" height="80" viewBox="0 0 80 80" fill="none" xmlns="http://www.w3.org/2000/svg">
<g clip-path="url(#clip0_38_324)">
<path d="M76.5309 31.1368L41.0307 0.329406C40.5258 -0.109583 39.7748 -0.109583 39.2692 0.328094L3.67707 31.1354C3.25231 31.4983 3.10131 32.0882 3.29827 32.6105C3.49522 33.1329 3.99876 33.4761 4.5568 33.4682H11.1955V71.2154C11.204 71.9562 11.804 72.554 12.5459 72.5592L27.1618 72.6944V75.8408C27.1618 78.1559 29.1406 79.9998 31.5401 79.9998H48.6672C51.0668 79.9998 53.0442 78.1559 53.0442 75.8408V72.9346L66.9603 73.1124H66.9728C67.3332 73.1032 67.6766 72.9549 67.93 72.699C68.1886 72.4379 68.335 72.0868 68.3383 71.7193V33.4682H75.6492C76.2073 33.4761 76.7102 33.1329 76.9078 32.6112C77.1047 32.0895 76.9544 31.5003 76.5309 31.1368ZM50.3551 75.8408C50.3551 76.6742 49.5837 77.312 48.6672 77.312H31.5401C30.6243 77.312 29.8509 76.6742 29.8509 75.8408V64.3576C29.8509 63.5242 30.6243 62.8654 31.5401 62.8654H48.6672C49.5837 62.8654 50.3551 63.5242 50.3551 64.3576V75.8408ZM46.9938 60.1776H33.2123V55.7261C33.2123 52.0928 36.2723 49.0907 40.103 49.0907H40.1227C40.1575 49.0907 40.1923 49.113 40.2264 49.113C41.9925 49.1143 43.6889 49.7968 44.9638 51.0173C46.267 52.2358 47.0023 53.9425 46.9938 55.7261V60.1776ZM65.6492 70.363L53.0442 70.2455V64.3576C53.0442 62.3995 51.6997 60.7505 49.6829 60.2879V55.7261C49.6953 53.205 48.6534 50.7928 46.8093 49.0723C45.0078 47.3511 42.6004 46.4082 40.1083 46.4482C34.7984 46.4535 30.5232 50.6137 30.5232 55.7261V60.2879C28.5064 60.7505 27.1618 62.3995 27.1618 64.3569V70.0067L13.8845 69.884V33.4682H65.6492V70.363ZM8.16368 30.7804L40.1483 3.09589L72.0502 30.7804H8.16368Z" fill="url(#paint0_linear_38_324)"/>
<path d="M40.1031 67.2539C38.3259 67.2539 36.879 68.6568 36.879 70.382C36.8612 71.6254 37.607 72.7521 38.7586 73.2219V74.5015C38.7586 75.2436 39.3606 75.8454 40.1031 75.8454C40.8456 75.8454 41.4476 75.2436 41.4476 74.5015V73.2219C42.5992 72.7521 43.345 71.6254 43.3272 70.3826C43.3272 68.6568 41.8816 67.2539 40.1031 67.2539ZM40.1031 69.9417C40.3355 69.9869 40.4931 70.2048 40.4629 70.4397C40.4327 70.6746 40.2252 70.8452 39.9889 70.8301C39.7525 70.815 39.5687 70.6188 39.568 70.382C39.6002 70.1162 39.8359 69.922 40.1031 69.9417Z" fill="url(#paint1_linear_38_324)"/>
</g>
<defs>
<linearGradient id="paint0_linear_38_324" x1="40.1031" y1="0" x2="40.1031" y2="79.9998" gradientUnits="userSpaceOnUse">
<stop stop-color="#F5AD03"/>
<stop offset="1" stop-color="#D65A01"/>
</linearGradient>
<linearGradient id="paint1_linear_38_324" x1="40.1031" y1="67.2539" x2="40.1031" y2="75.8454" gradientUnits="userSpaceOnUse">
<stop stop-color="#F5AD03"/>
<stop offset="1" stop-color="#D65A01"/>
</linearGradient>
<clipPath id="clip0_38_324">
<rect width="80" height="80" fill="white"/>
</clipPath>
</defs>
</svg>
