<svg width="80" height="80" viewBox="0 0 80 80" fill="none" xmlns="http://www.w3.org/2000/svg">
<path d="M77.3333 62.6667H70.6666V38.6667C70.6666 37.1959 69.4706 36 67.9998 36H55.9998V12C55.9998 10.5292 54.8039 9.33325 53.3331 9.33325H26.6667C25.1959 9.33325 24 10.5292 24 12V36H12C10.5292 36 9.33328 37.1959 9.33328 38.6667V62.6667H2.66672C1.19594 62.6667 0 63.8626 0 65.3333V77.3333C0 78.0697 0.597031 78.6665 1.33328 78.6665C2.06953 78.6665 2.66656 78.0695 2.66656 77.3333V76H77.3333V77.3333C77.3333 78.0697 77.9303 78.6665 78.6666 78.6665C79.4028 78.6665 79.9998 78.0695 79.9998 77.3333V65.3333C80 63.8626 78.8041 62.6667 77.3333 62.6667ZM68 38.6667L68.0019 62.6667H41.3333V38.6667H53.3333H68ZM26.6667 12H53.3334L53.3353 36H41.3333H38.6666H26.6666V12H26.6667ZM12 38.6667H26.6667H38.6667V62.6667H12V38.6667ZM77.3333 73.3333H2.66672V65.3333H12H38.6667H41.3334H68H77.3333V73.3333Z" fill="url(#paint0_linear_38_371)"/>
<defs>
<linearGradient id="paint0_linear_38_371" x1="39.9999" y1="9.33325" x2="39.9999" y2="78.6665" gradientUnits="userSpaceOnUse">
<stop stop-color="#F5AD03"/>
<stop offset="1" stop-color="#D65A01"/>
</linearGradient>
</defs>
</svg>
