<svg width="80" height="80" viewBox="0 0 80 80" fill="none" xmlns="http://www.w3.org/2000/svg">
<path d="M65.3671 0H20.5096C19.676 0 19 0.675091 19 1.50961V78.4904C19 79.3245 19.676 80 20.5096 80H77.868C78.7017 80 79.3776 79.3249 79.3776 78.4904V14.8272C79.3772 9.56205 70.3425 0 65.3671 0ZM76.3588 76.9808H22.0192V3.01879H65.3675C68.7573 3.01879 76.3588 11.185 76.3588 14.8272V76.9808Z" fill="url(#paint0_linear_39_383)"/>
<path d="M40.1325 33.2076C46.7909 33.2076 52.2081 27.7904 52.2081 21.132C52.2081 14.4736 46.7909 9.0564 40.1325 9.0564C33.4741 9.0564 28.0569 14.4736 28.0569 21.132C28.0569 27.7904 33.4737 33.2076 40.1325 33.2076ZM40.1321 12.0756C45.1266 12.0756 49.1889 16.1379 49.1889 21.132C49.1889 21.5178 49.1567 21.8957 49.1094 22.2689L41.2589 21.0925L36.3422 12.9175C37.4964 12.3823 38.778 12.0756 40.1321 12.0756ZM33.8469 14.6261L39.0386 23.2576C39.2706 23.6438 39.6629 23.9049 40.1082 23.9727L48.2184 25.1886C46.727 28.1488 43.6669 30.1888 40.1325 30.1888C35.1384 30.1888 31.0761 26.1265 31.0761 21.1324C31.0752 18.5789 32.1418 16.2739 33.8469 14.6261Z" fill="url(#paint1_linear_39_383)"/>
<path d="M61.3039 39.2451H29.5659V42.2639H61.3039V39.2451Z" fill="url(#paint2_linear_39_383)"/>
<path d="M50.6979 46.7925H29.5659V49.8113H50.6979V46.7925Z" fill="url(#paint3_linear_39_383)"/>
<path d="M56.7355 54.3396H29.5659V57.3584H56.7355V54.3396Z" fill="url(#paint4_linear_39_383)"/>
<defs>
<linearGradient id="paint0_linear_39_383" x1="49.1888" y1="0" x2="49.1888" y2="80" gradientUnits="userSpaceOnUse">
<stop stop-color="#F5AD03"/>
<stop offset="1" stop-color="#D65A01"/>
</linearGradient>
<linearGradient id="paint1_linear_39_383" x1="40.1325" y1="9.0564" x2="40.1325" y2="33.2076" gradientUnits="userSpaceOnUse">
<stop stop-color="#F5AD03"/>
<stop offset="1" stop-color="#D65A01"/>
</linearGradient>
<linearGradient id="paint2_linear_39_383" x1="45.4349" y1="39.2451" x2="45.4349" y2="42.2639" gradientUnits="userSpaceOnUse">
<stop stop-color="#F5AD03"/>
<stop offset="1" stop-color="#D65A01"/>
</linearGradient>
<linearGradient id="paint3_linear_39_383" x1="40.1319" y1="46.7925" x2="40.1319" y2="49.8113" gradientUnits="userSpaceOnUse">
<stop stop-color="#F5AD03"/>
<stop offset="1" stop-color="#D65A01"/>
</linearGradient>
<linearGradient id="paint4_linear_39_383" x1="43.1507" y1="54.3396" x2="43.1507" y2="57.3584" gradientUnits="userSpaceOnUse">
<stop stop-color="#F5AD03"/>
<stop offset="1" stop-color="#D65A01"/>
</linearGradient>
</defs>
</svg>
