<svg width="60" height="60" viewBox="0 0 60 60" fill="none" xmlns="http://www.w3.org/2000/svg">
<g clip-path="url(#clip0_35_232)">
<path d="M59.3993 26.2207L55.0093 24.531C54.3623 21.5562 53.2007 18.7534 51.5502 16.1861L53.4609 11.8839C53.6183 11.5295 53.5413 11.1146 53.267 10.8404L49.1596 6.73313C48.8853 6.45902 48.4704 6.38203 48.1161 6.5393L43.8124 8.45074C41.2443 6.80027 38.4424 5.63859 35.4696 4.99207L33.7792 0.600703C33.6398 0.238828 33.2921 0 32.9043 0H27.0955C26.7076 0 26.3599 0.238828 26.2206 0.600703L24.5304 4.99195C21.5575 5.63848 18.7555 6.80004 16.1873 8.45062L11.8837 6.53918C11.5294 6.3818 11.1145 6.45891 10.8403 6.73313L6.73301 10.8405C6.45879 11.1148 6.3818 11.5295 6.53918 11.884L8.45039 16.1871C6.7998 18.7547 5.63812 21.5569 4.9916 24.5306L0.600703 26.2208C0.238828 26.3602 0 26.7079 0 27.0957V32.9044C0 33.2923 0.238828 33.64 0.600703 33.7793L4.99066 35.469C5.63766 38.4439 6.79934 41.2467 8.44981 43.8139L6.53906 48.1161C6.38168 48.4705 6.45867 48.8852 6.73301 49.1596L10.8404 53.267C11.1146 53.5412 11.5295 53.618 11.8839 53.4608L16.1875 51.5493C18.7555 53.1998 21.5575 54.3614 24.5303 55.008L26.2206 59.3993C26.3599 59.7612 26.7076 60 27.0955 60H32.9043C33.2921 60 33.6398 59.7612 33.7792 59.3993L35.4689 55.0092C38.4438 54.3622 41.2466 53.2004 43.8138 51.5501L48.1159 53.4608C48.4703 53.6182 48.8851 53.5412 49.1593 53.2669L53.2666 49.1593C53.5409 48.8851 53.6179 48.4704 53.4605 48.116L51.5491 43.8124C53.1996 41.2443 54.3613 38.4424 55.0078 35.4695L59.3991 33.7792C59.7609 33.64 59.9998 33.2921 59.9998 32.9043V27.0955C60 26.7077 59.7612 26.3599 59.3993 26.2207ZM58.125 32.2607L53.857 33.9035C53.5562 34.0192 53.3359 34.2814 53.2738 34.5977C52.6675 37.6849 51.4672 40.5802 49.7066 43.2029C49.527 43.4705 49.4974 43.8115 49.6282 44.106L51.486 48.2889L48.289 51.486L44.1075 49.6288C43.813 49.4981 43.472 49.5277 43.2043 49.7073C40.5826 51.4678 37.6868 52.6682 34.5974 53.275C34.2811 53.337 34.0189 53.5573 33.9032 53.8581L32.2608 58.125H27.7395L26.0965 53.8569C25.9807 53.5562 25.7186 53.3359 25.4023 53.2738C22.3151 52.6673 19.42 51.4672 16.7973 49.7066C16.5298 49.5271 16.1889 49.4975 15.8943 49.6281L11.7111 51.486L8.51414 48.289L10.3712 44.1074C10.502 43.8128 10.4723 43.4718 10.2927 43.2042C8.53219 40.5826 7.33184 37.6868 6.72504 34.5973C6.66293 34.281 6.44262 34.0187 6.1418 33.903L1.875 32.2607V27.7393L6.14262 26.0966C6.44344 25.9808 6.66363 25.7186 6.72586 25.4023C7.3323 22.314 8.53254 19.4188 10.2932 16.7967C10.4728 16.5292 10.5025 16.1882 10.3717 15.8936L8.51402 11.7111L11.711 8.51414L15.8938 10.3719C16.1883 10.5027 16.5293 10.473 16.797 10.2935C19.4197 8.53277 22.315 7.33254 25.4021 6.72633C25.7184 6.66422 25.9807 6.44391 26.0964 6.14309L27.7392 1.875H32.2607L33.9036 6.14297C34.0194 6.44379 34.2816 6.66398 34.5979 6.72621C37.6849 7.33254 40.58 8.53277 43.2028 10.2934C43.4704 10.4729 43.8112 10.5025 44.1059 10.3718L48.2889 8.51391L51.4859 11.7109L49.6288 15.8924C49.498 16.1869 49.5277 16.528 49.7073 16.7955C51.4678 19.4173 52.6682 22.3131 53.275 25.4025C53.3371 25.7188 53.5574 25.9809 53.8582 26.0967L58.125 27.7392V32.2607ZM30 14.4118C21.4048 14.4118 14.412 21.4046 14.412 29.9999C14.412 38.5951 21.4046 45.588 30 45.588C38.5954 45.588 45.5882 38.5952 45.5882 30C45.5882 21.4048 38.5952 14.4118 30 14.4118ZM37.6502 41.3755L37.2435 40.6709C36.9846 40.2225 36.4111 40.0689 35.9629 40.3277C35.5145 40.5866 35.3609 41.16 35.6197 41.6084L36.0278 42.3151C34.4729 43.0793 32.7533 43.5572 30.9377 43.6804V42.863C30.9377 42.3452 30.518 41.9255 30.0002 41.9255C29.4825 41.9255 29.0627 42.3452 29.0627 42.863V43.6804C27.2471 43.5572 25.5275 43.0792 23.9727 42.3151L24.3807 41.6084C24.6396 41.16 24.486 40.5866 24.0376 40.3277C23.589 40.0688 23.0157 40.2224 22.757 40.6709L22.3501 41.3755C20.8821 40.385 19.6152 39.1182 18.6247 37.6502L19.3295 37.2434C19.7779 36.9845 19.9315 36.4111 19.6726 35.9627C19.4137 35.5145 18.8402 35.3609 18.392 35.6196L17.6852 36.0277C16.9211 34.4727 16.443 32.7531 16.3199 30.9375H17.1374C17.6551 30.9375 18.0749 30.5177 18.0749 30C18.0749 29.4823 17.6551 29.0625 17.1374 29.0625H16.3199C16.443 27.2469 16.9211 25.5273 17.6851 23.9723L18.392 24.3804C18.5396 24.4657 18.7008 24.5061 18.8599 24.5061C19.1839 24.5061 19.4991 24.338 19.6727 24.0373C19.9316 23.5888 19.778 23.0155 19.3296 22.7566L18.6248 22.3498C19.6153 20.8818 20.8821 19.6148 22.3502 18.6244L22.7571 19.3291C22.9308 19.6298 23.2459 19.798 23.5699 19.798C23.7289 19.798 23.8902 19.7575 24.0379 19.6723C24.4862 19.4134 24.6398 18.84 24.381 18.3916L23.9729 17.6848C25.5278 16.9206 27.2475 16.4427 29.0631 16.3195V17.137C29.0631 17.6548 29.4829 18.0745 30.0006 18.0745C30.5183 18.0745 30.9381 17.6548 30.9381 17.137V16.3195C32.7537 16.4427 34.4733 16.9207 36.0282 17.6849L35.6202 18.3916C35.3613 18.8401 35.515 19.4134 35.9633 19.6723C36.111 19.7576 36.2721 19.798 36.4313 19.798C36.7553 19.798 37.0704 19.6298 37.2441 19.3291L37.6509 18.6244C39.1189 19.6148 40.3859 20.8816 41.3762 22.3498L40.6714 22.7566C40.2231 23.0155 40.0695 23.5889 40.3283 24.0373C40.502 24.338 40.8171 24.5061 41.1411 24.5061C41.3002 24.5061 41.4614 24.4656 41.6091 24.3804L42.3158 23.9723C43.08 25.5273 43.5579 27.2468 43.6811 29.0625H42.8636C42.3458 29.0625 41.9261 29.4823 41.9261 30C41.9261 30.5177 42.3458 30.9375 42.8636 30.9375H43.6809C43.5578 32.7531 43.0798 34.4727 42.3156 36.0277L41.6088 35.6196C41.1604 35.3606 40.5871 35.5144 40.3282 35.9627C40.0693 36.4111 40.223 36.9845 40.6713 37.2434L41.376 37.6502C40.385 39.1181 39.1182 40.385 37.6502 41.3755ZM36.5249 32.6845L32.9016 30.5926C32.9406 30.401 32.9612 30.2029 32.9612 29.9999C32.9612 28.6948 32.1121 27.5849 30.9375 27.1917V20.682C30.9375 20.1642 30.5177 19.7445 30 19.7445C29.4823 19.7445 29.0625 20.1642 29.0625 20.682V27.1917C27.8879 27.5849 27.0388 28.6948 27.0388 29.9999C27.0388 31.6327 28.3671 32.9611 30 32.9611C30.7521 32.9611 31.4392 32.6788 31.9621 32.2152L35.5874 34.3083C35.735 34.3936 35.8962 34.434 36.0553 34.434C36.3793 34.434 36.6945 34.2659 36.8681 33.9652C37.1269 33.5168 36.9732 32.9434 36.5249 32.6845ZM30 31.0862C29.4011 31.0862 28.9138 30.5989 28.9138 30C28.9138 29.4011 29.4011 28.9138 30 28.9138C30.5989 28.9138 31.0862 29.4011 31.0862 30C31.0862 30.5989 30.5988 31.0862 30 31.0862ZM30 10.3125C19.1443 10.3125 10.3125 19.1442 10.3125 30C10.3125 40.8558 19.1442 49.6875 30 49.6875C40.8558 49.6875 49.6875 40.8558 49.6875 30C49.6875 19.1442 40.8557 10.3125 30 10.3125ZM30 47.8125C20.1782 47.8125 12.1875 39.8217 12.1875 30C12.1875 20.1783 20.1782 12.1875 30 12.1875C39.8218 12.1875 47.8125 20.1782 47.8125 30C47.8125 39.8218 39.8218 47.8125 30 47.8125Z" fill="url(#paint0_linear_35_232)"/>
</g>
<defs>
<linearGradient id="paint0_linear_35_232" x1="29.9999" y1="0" x2="29.9999" y2="60" gradientUnits="userSpaceOnUse">
<stop stop-color="#F5AD03"/>
<stop offset="1" stop-color="#D65A01"/>
</linearGradient>
<clipPath id="clip0_35_232">
<rect width="60" height="60" fill="white"/>
</clipPath>
</defs>
</svg>
