<svg width="80" height="80" viewBox="0 0 80 80" fill="none" xmlns="http://www.w3.org/2000/svg">
<path d="M20.6667 53.3333C20.6667 68.04 32.6267 80 47.3334 80C62.0401 80 74.0001 68.04 74.0001 53.3333C74.0001 49.5067 73.1601 45.7067 71.5867 42.2533C76.0534 40.9733 79.3334 36.8667 79.3334 32C79.3334 26.12 74.5467 21.3333 68.6667 21.3333C63.8001 21.3333 59.6934 24.6133 58.4134 29.08C56.1601 28.0533 53.7734 27.3467 51.3334 26.9733V24C53.5334 24 55.3334 22.2 55.3334 20C55.3334 17.8 53.5334 16 51.3334 16H43.3334C41.1334 16 39.3334 17.8 39.3334 20C39.3334 22.2 41.1334 24 43.3334 24V27C30.5201 28.9467 20.6667 39.9867 20.6667 53.3333ZM60.7067 31.2C60.7067 31.1867 60.7067 31.1733 60.7067 31.16C61.1334 27.1467 64.5334 24 68.6667 24C73.0801 24 76.6667 27.5867 76.6667 32C76.6667 36.1333 73.5201 39.5333 69.5068 39.96C69.4934 39.96 69.4801 39.96 69.4534 39.96C69.2001 39.9867 68.9334 40 68.6667 40C64.2534 40 60.6667 36.4133 60.6667 32C60.6667 31.7333 60.6801 31.4667 60.7067 31.2ZM42.0001 20C42.0001 19.2667 42.6001 18.6667 43.3334 18.6667H51.3334C52.0667 18.6667 52.6667 19.2667 52.6667 20C52.6667 20.7333 52.0667 21.3333 51.3334 21.3333H43.3334C42.6001 21.3333 42.0001 20.7333 42.0001 20ZM48.6667 24V26.7067C48.2267 26.68 47.7734 26.6667 47.3334 26.6667C46.8801 26.6667 46.4401 26.7067 46.0001 26.7333V24H48.6667ZM46.0001 29.4V32C46.0001 32.7333 46.6001 33.3333 47.3334 33.3333C48.0667 33.3333 48.6667 32.7333 48.6667 32V29.3733C51.9201 29.56 55.1067 30.4 58.0134 31.8533C58.0134 31.9067 58.0001 31.9467 58.0001 32C58.0001 37.88 62.7868 42.6667 68.6667 42.6667C68.7201 42.6667 68.7601 42.6533 68.8134 42.6533C70.2534 45.56 71.1068 48.7467 71.2934 52H68.6667C67.9334 52 67.3334 52.6 67.3334 53.3333C67.3334 54.0667 67.9334 54.6667 68.6667 54.6667H71.2668C70.5868 66.84 60.8401 76.5867 48.6667 77.2667V74.6667C48.6667 73.9333 48.0667 73.3333 47.3334 73.3333C46.6001 73.3333 46.0001 73.9333 46.0001 74.6667V77.2667C33.8267 76.5867 24.0801 66.84 23.4001 54.6667H26.0001C26.7334 54.6667 27.3334 54.0667 27.3334 53.3333C27.3334 52.6 26.7334 52 26.0001 52H23.4001C24.0801 39.8267 33.8267 30.08 46.0001 29.4Z" fill="url(#paint0_linear_39_377)"/>
<path d="M57.2 62.4C57.44 62.5867 57.72 62.6667 58 62.6667C58.4 62.6667 58.8 62.48 59.0667 62.1333C59.5067 61.5467 59.3867 60.7067 58.8 60.2667L48.6667 52.6667V37.3333C48.6667 36.6 48.0667 36 47.3333 36C46.6 36 46 36.6 46 37.3333V53.3333C46 53.7467 46.2 54.1467 46.5333 54.4L57.2 62.4Z" fill="url(#paint1_linear_39_377)"/>
<path d="M68.6666 33.3333C69.3999 33.3333 69.9999 32.7333 69.9999 31.9999V26.6666C69.9999 25.9333 69.3999 25.3333 68.6666 25.3333C67.9333 25.3333 67.3333 25.9333 67.3333 26.6666V31.9999C67.3333 32.7333 67.9333 33.3333 68.6666 33.3333Z" fill="url(#paint2_linear_39_377)"/>
<path d="M68.6666 38.6667C69.3999 38.6667 69.9999 38.0667 69.9999 37.3334V36.0001C69.9999 35.2667 69.3999 34.6667 68.6666 34.6667C67.9333 34.6667 67.3333 35.2667 67.3333 36.0001V37.3334C67.3333 38.0667 67.9333 38.6667 68.6666 38.6667Z" fill="url(#paint3_linear_39_377)"/>
<defs>
<linearGradient id="paint0_linear_39_377" x1="50.0001" y1="16" x2="50.0001" y2="80" gradientUnits="userSpaceOnUse">
<stop stop-color="#F5AD03"/>
<stop offset="1" stop-color="#D65A01"/>
</linearGradient>
<linearGradient id="paint1_linear_39_377" x1="52.666" y1="36" x2="52.666" y2="62.6667" gradientUnits="userSpaceOnUse">
<stop stop-color="#F5AD03"/>
<stop offset="1" stop-color="#D65A01"/>
</linearGradient>
<linearGradient id="paint2_linear_39_377" x1="68.6666" y1="25.3333" x2="68.6666" y2="33.3333" gradientUnits="userSpaceOnUse">
<stop stop-color="#F5AD03"/>
<stop offset="1" stop-color="#D65A01"/>
</linearGradient>
<linearGradient id="paint3_linear_39_377" x1="68.6666" y1="34.6667" x2="68.6666" y2="38.6667" gradientUnits="userSpaceOnUse">
<stop stop-color="#F5AD03"/>
<stop offset="1" stop-color="#D65A01"/>
</linearGradient>
</defs>
</svg>
