<svg width="80" height="80" viewBox="0 0 80 80" fill="none" xmlns="http://www.w3.org/2000/svg">
<g clip-path="url(#clip0_38_337)">
<path d="M27.2259 21.2432C28.6468 22.6641 30.2075 21.9591 31.5863 21.3305L33.7524 23.4966C33.1323 23.983 32.5268 24.0581 32.0398 24.1185C31.6839 24.1631 31.4032 24.1979 31.2243 24.3767C31.0638 24.5366 31.0028 24.7936 31.0522 25.1C31.0949 25.3692 31.2201 25.634 31.3781 25.7921C31.5887 26.0027 31.9238 26.1095 32.3285 26.1095C33.1213 26.1095 34.1827 25.6969 35.0927 24.8369L35.3875 25.1311C35.545 25.2886 35.8551 25.2428 36.0656 25.0322C36.2652 24.8327 36.3134 24.5031 36.1645 24.3541L35.8349 24.0245C36.9415 22.4846 36.8451 20.8715 35.57 19.5958C34.1028 18.1286 32.5677 18.648 31.1212 19.3108L29.2077 17.3974C29.6643 17.0092 30.0537 16.8816 30.3674 16.7797C30.5926 16.7064 30.7696 16.6485 30.9002 16.5178C31.1328 16.2853 31.1181 15.9826 31.065 15.7695C30.9955 15.4918 30.8374 15.2605 30.7238 15.1464C30.0763 14.4988 28.6871 15.4638 27.9565 16.1461L27.6837 15.8733C27.6117 15.8013 27.4926 15.772 27.3584 15.7933C27.2271 15.8141 27.099 15.8794 27.0062 15.9722C26.795 16.1828 26.7499 16.4934 26.9067 16.6503L27.2027 16.9463C26.6369 17.686 25.5377 19.5549 27.2259 21.2432ZM28.5528 18.1206L30.1788 19.7472C29.425 20.0737 28.8989 20.1732 28.4546 19.7283C28.0597 19.334 28.0951 18.7633 28.5528 18.1206ZM32.5512 20.9172C33.1549 20.6871 33.7878 20.5578 34.3414 21.1113C34.8022 21.5722 34.8333 22.1697 34.4293 22.7953L32.5512 20.9172Z" fill="url(#paint0_linear_38_337)"/>
<path d="M50.2759 21.6051C51.4154 21.9842 52.5873 22.1715 53.7549 22.1715C55.4437 22.1715 57.1222 21.7779 58.6762 20.999C61.3037 19.6813 63.2611 17.4193 64.1876 14.63C65.1142 11.8401 64.8987 8.85671 63.581 6.22915C62.2638 3.60158 60.0019 1.64419 57.2125 0.717671C51.4533 -1.19456 45.213 1.93471 43.3002 7.69338C41.388 13.452 44.5172 19.6929 50.2759 21.6051ZM45.5579 8.44289C46.7584 4.82778 50.1349 2.5353 53.7506 2.5353C54.6497 2.5353 55.564 2.67751 56.4624 2.97597C58.6493 3.70168 60.4224 5.2361 61.4545 7.29604C62.4872 9.35537 62.6563 11.6936 61.93 13.8805C61.2042 16.0668 59.6698 17.8399 57.6099 18.8726C55.5506 19.9053 53.2117 20.0737 51.0254 19.348C46.5119 17.849 44.0589 12.9571 45.5579 8.44289Z" fill="url(#paint1_linear_38_337)"/>
<path d="M51.6339 16.3409L51.5027 16.7364C51.4697 16.8353 51.4929 16.9531 51.5655 17.0593C51.6406 17.1673 51.7572 17.2522 51.8951 17.2979C51.961 17.3199 52.0294 17.3297 52.0965 17.3297C52.3028 17.3297 52.4957 17.2332 52.5451 17.0825L52.6922 16.6406C54.5648 16.9391 55.9637 16.1297 56.5326 14.4183C57.1863 12.4487 56.0345 11.3098 54.7937 10.3137L55.6463 7.74533C56.1981 7.9797 56.4862 8.27084 56.7187 8.50521C56.8847 8.67306 57.016 8.80612 57.1911 8.8641C57.7502 9.04965 58.2214 8.44235 58.338 8.0914C58.6267 7.22226 57.1411 6.41293 56.2042 6.06625L56.3257 5.70004C56.3922 5.49984 56.2011 5.22763 55.9332 5.13851C55.6506 5.04452 55.3528 5.14279 55.2832 5.35336L55.1507 5.7507C54.2364 5.57675 52.0727 5.43148 51.3202 7.69772C50.6866 9.60507 52.0172 10.6836 53.197 11.6345L52.2314 14.5416C51.5185 14.2053 51.1804 13.6981 50.9076 13.2898C50.7086 12.9913 50.5511 12.7557 50.3113 12.6757C50.0964 12.6043 49.8395 12.6648 49.5874 12.846C49.3664 13.0053 49.1858 13.236 49.115 13.4485C48.8379 14.2834 49.8559 15.6939 51.6339 16.3409ZM53.2251 8.11703C53.3697 7.68124 53.7506 7.45236 54.3158 7.45236C54.4372 7.45236 54.5678 7.46334 54.7064 7.48471L53.9819 9.66732C53.3508 9.13937 53.0267 8.71334 53.2251 8.11703ZM54.6277 13.999C54.422 14.6179 53.9038 14.9139 53.1616 14.8327L53.9984 12.3126C54.4751 12.749 54.8742 13.2568 54.6277 13.999Z" fill="url(#paint2_linear_38_337)"/>
<path d="M79.7968 40.6202L71.9141 28.9258C71.9093 28.9191 71.9032 28.9136 71.8983 28.9075C71.7365 28.6774 71.4967 28.5035 71.208 28.4333L42.3804 21.446C42.4006 21.1756 42.4134 20.9034 42.4134 20.6293C42.4134 17.6899 41.269 14.9262 39.1901 12.848C34.9 8.55719 27.9188 8.55719 23.6274 12.848C20.2497 16.2256 19.5331 21.2714 21.4741 25.3589L8.79279 28.4333C8.50654 28.5029 8.26789 28.6744 8.10614 28.902C8.09943 28.91 8.09211 28.9173 8.086 28.9258L0.203312 40.6202C-0.0145832 40.9431 -0.0603596 41.352 0.0806317 41.7151C0.221623 42.0777 0.531071 42.3493 0.909489 42.4409L7.88337 44.1315V71.3013C7.88337 71.85 8.25934 72.3279 8.79279 72.4573L39.7199 79.9555C39.8127 79.9775 39.9067 79.9885 40.0007 79.9885C40.0947 79.9885 40.1881 79.9732 40.2796 79.9512L40.2808 79.9555L71.2086 72.4573C71.742 72.3279 72.1174 71.8506 72.1174 71.3013V60.5714C72.1174 59.0373 69.7388 59.0371 69.7388 60.5714V70.3657L41.1903 77.287V40.9821L46.8964 49.4483C47.121 49.7809 47.4934 49.9726 47.8828 49.9726C47.9761 49.9726 48.0701 49.9616 48.1635 49.939L69.7382 44.7083V55.8137C69.7382 57.3479 72.1174 57.3477 72.1174 55.8137V44.1315L79.0913 42.4409C79.4697 42.3493 79.7791 42.0783 79.9195 41.7151C80.0605 41.352 80.0147 40.9431 79.7968 40.6202ZM25.3095 14.5301C26.9916 12.8486 29.1999 12.0081 31.4088 12.0081C33.6176 12.0081 35.8265 12.8486 37.508 14.5301C39.137 16.1591 40.0342 18.3253 40.0342 20.6293C40.0342 22.9334 39.1376 25.0995 37.508 26.7286C34.145 30.0916 28.6726 30.0916 25.3095 26.7286C21.9465 23.3655 21.9465 17.8931 25.3095 14.5301ZM22.8028 27.4842C23.0579 27.8046 23.3314 28.1147 23.6274 28.4107C25.7728 30.5561 28.5908 31.6285 31.4088 31.6285C34.2268 31.6285 37.0447 30.5555 39.1901 28.4107C40.5006 27.1003 41.4387 25.517 41.9538 23.7903L65.8796 29.5893L41.1896 35.5768C41.0703 35.6055 40.1133 35.763 40 35.763C39.9023 35.763 38.9258 35.6055 38.8111 35.5762L14.1206 29.5893L22.8028 27.4842ZM10.2619 70.3663V44.7083L19.3793 46.919C20.8055 47.2594 21.4388 44.9712 19.9403 44.607L9.34577 42.0386C9.33295 42.0356 9.32013 42.0319 9.30671 42.0295L3.13117 40.5323L9.59723 30.9406L38.0579 37.8419L31.5937 47.4323L24.7602 45.7758C23.2695 45.4149 22.7093 47.7259 24.1999 48.0878L31.8372 49.9396C31.9306 49.9622 32.0246 49.9732 32.1174 49.9732C32.5068 49.9732 32.8797 49.7809 33.1037 49.4483L38.8111 40.9815V77.2877L10.2619 70.3663ZM70.6922 42.0295C70.6824 42.0313 70.6727 42.0344 70.6635 42.0362L48.4064 47.4323L41.9422 37.8419L70.4035 30.9406L76.8684 40.5323L70.6922 42.0295Z" fill="url(#paint3_linear_38_337)"/>
<path d="M24.1999 48.0878C22.7093 47.7259 23.2695 45.4149 24.7602 45.7758L19.9403 44.607C21.4388 44.9712 20.8055 47.2594 19.3793 46.919L24.1999 48.0878Z" fill="url(#paint4_linear_38_337)"/>
<path d="M72.1174 55.8137C72.1174 57.3477 69.7382 57.3479 69.7382 55.8137L69.7388 60.5714C69.7388 59.0371 72.1174 59.0373 72.1174 60.5714V55.8137Z" fill="url(#paint5_linear_38_337)"/>
</g>
<defs>
<linearGradient id="paint0_linear_38_337" x1="31.4631" y1="14.9324" x2="31.4631" y2="26.1095" gradientUnits="userSpaceOnUse">
<stop stop-color="#F5AD03"/>
<stop offset="1" stop-color="#D65A01"/>
</linearGradient>
<linearGradient id="paint1_linear_38_337" x1="53.7463" y1="0.156006" x2="53.7463" y2="22.1715" gradientUnits="userSpaceOnUse">
<stop stop-color="#F5AD03"/>
<stop offset="1" stop-color="#D65A01"/>
</linearGradient>
<linearGradient id="paint2_linear_38_337" x1="53.7222" y1="5.10278" x2="53.7222" y2="17.3297" gradientUnits="userSpaceOnUse">
<stop stop-color="#F5AD03"/>
<stop offset="1" stop-color="#D65A01"/>
</linearGradient>
<linearGradient id="paint3_linear_38_337" x1="40.0001" y1="9.62988" x2="40.0001" y2="79.9885" gradientUnits="userSpaceOnUse">
<stop stop-color="#F5AD03"/>
<stop offset="1" stop-color="#D65A01"/>
</linearGradient>
<linearGradient id="paint4_linear_38_337" x1="40.0001" y1="9.62988" x2="40.0001" y2="79.9885" gradientUnits="userSpaceOnUse">
<stop stop-color="#F5AD03"/>
<stop offset="1" stop-color="#D65A01"/>
</linearGradient>
<linearGradient id="paint5_linear_38_337" x1="40.0001" y1="9.62988" x2="40.0001" y2="79.9885" gradientUnits="userSpaceOnUse">
<stop stop-color="#F5AD03"/>
<stop offset="1" stop-color="#D65A01"/>
</linearGradient>
<clipPath id="clip0_38_337">
<rect width="80" height="80" fill="white"/>
</clipPath>
</defs>
</svg>
