<svg width="60" height="60" viewBox="0 0 60 60" fill="none" xmlns="http://www.w3.org/2000/svg">
<path d="M34.6875 14.0625C34.6875 13.8139 34.5887 13.5754 34.4129 13.3996C34.2371 13.2238 33.9986 13.125 33.75 13.125H26.25C26.0014 13.125 25.7629 13.2238 25.5871 13.3996C25.4113 13.5754 25.3125 13.8139 25.3125 14.0625V24.375H23.4375V26.25H36.5625V24.375H34.6875V14.0625ZM30.9375 18.75H32.8125V20.625H30.9375V18.75ZM29.0625 20.625H27.1875V18.75H29.0625V20.625ZM32.8125 16.875H30.9375V15H32.8125V16.875ZM29.0625 15V16.875H27.1875V15H29.0625ZM27.1875 22.5H29.0625V24.375H27.1875V22.5ZM30.9375 24.375V22.5H32.8125V24.375H30.9375Z" fill="url(#paint0_linear_35_244)"/>
<path d="M1.875 56.25H58.125V58.125H1.875V56.25Z" fill="url(#paint1_linear_35_244)"/>
<path d="M37.5731 41.25C42.3459 35.5772 47.8125 27.4003 47.8125 19.6875C47.8125 14.9633 45.9358 10.4327 42.5953 7.09216C39.2548 3.75167 34.7242 1.875 30 1.875C25.2758 1.875 20.7452 3.75167 17.4047 7.09216C14.0642 10.4327 12.1875 14.9633 12.1875 19.6875C12.1875 27.4003 17.6541 35.5772 22.4269 41.25H1.875V43.125H24.0553C25.735 45.0118 27.5111 46.8104 29.3766 48.5138C29.5482 48.6666 29.7701 48.7511 30 48.7511C30.2299 48.7511 30.4518 48.6666 30.6234 48.5138C32.4889 46.8104 34.265 45.0118 35.9447 43.125H58.125V41.25H37.5731ZM30 46.5356C26.9831 43.6875 14.0625 30.8372 14.0625 19.6875C14.0625 15.4606 15.7416 11.4068 18.7305 8.41799C21.7193 5.42913 25.7731 3.75 30 3.75C34.2269 3.75 38.2807 5.42913 41.2695 8.41799C44.2584 11.4068 45.9375 15.4606 45.9375 19.6875C45.9375 30.8278 33.0159 43.6875 30 46.5356Z" fill="url(#paint2_linear_35_244)"/>
<path d="M7.5 48.75H11.25V50.625H7.5V48.75Z" fill="url(#paint3_linear_35_244)"/>
<path d="M15 48.75H18.75V50.625H15V48.75Z" fill="url(#paint4_linear_35_244)"/>
<path d="M22.5 48.75H26.25V50.625H22.5V48.75Z" fill="url(#paint5_linear_35_244)"/>
<path d="M33.75 48.75H37.5V50.625H33.75V48.75Z" fill="url(#paint6_linear_35_244)"/>
<path d="M41.25 48.75H45V50.625H41.25V48.75Z" fill="url(#paint7_linear_35_244)"/>
<path d="M48.75 48.75H52.5V50.625H48.75V48.75Z" fill="url(#paint8_linear_35_244)"/>
<path d="M30 7.5C27.5895 7.5 25.2332 8.21478 23.229 9.55396C21.2248 10.8931 19.6627 12.7966 18.7402 15.0235C17.8178 17.2505 17.5764 19.701 18.0467 22.0652C18.5169 24.4293 19.6777 26.6009 21.3821 28.3054C23.0866 30.0098 25.2582 31.1706 27.6223 31.6408C29.9865 32.1111 32.437 31.8697 34.664 30.9473C36.8909 30.0248 38.7944 28.4627 40.1335 26.4585C41.4727 24.4543 42.1875 22.098 42.1875 19.6875C42.1838 16.4563 40.8986 13.3585 38.6138 11.0737C36.329 8.78895 33.2312 7.50372 30 7.5ZM30 30C27.9604 30 25.9666 29.3952 24.2707 28.262C22.5748 27.1289 21.253 25.5183 20.4725 23.6339C19.692 21.7496 19.4877 19.6761 19.8857 17.6756C20.2836 15.6752 21.2657 13.8377 22.708 12.3955C24.1502 10.9532 25.9877 9.97106 27.9881 9.57315C29.9886 9.17524 32.0621 9.37946 33.9464 10.16C35.8308 10.9405 37.4414 12.2623 38.5745 13.9582C39.7077 15.6541 40.3125 17.6479 40.3125 19.6875C40.3093 22.4216 39.2218 25.0427 37.2885 26.976C35.3552 28.9092 32.7341 29.9968 30 30Z" fill="url(#paint9_linear_35_244)"/>
<defs>
<linearGradient id="paint0_linear_35_244" x1="30" y1="13.125" x2="30" y2="26.25" gradientUnits="userSpaceOnUse">
<stop stop-color="#F5AD03"/>
<stop offset="1" stop-color="#D65A01"/>
</linearGradient>
<linearGradient id="paint1_linear_35_244" x1="30" y1="56.25" x2="30" y2="58.125" gradientUnits="userSpaceOnUse">
<stop stop-color="#F5AD03"/>
<stop offset="1" stop-color="#D65A01"/>
</linearGradient>
<linearGradient id="paint2_linear_35_244" x1="30" y1="1.875" x2="30" y2="48.7511" gradientUnits="userSpaceOnUse">
<stop stop-color="#F5AD03"/>
<stop offset="1" stop-color="#D65A01"/>
</linearGradient>
<linearGradient id="paint3_linear_35_244" x1="9.375" y1="48.75" x2="9.375" y2="50.625" gradientUnits="userSpaceOnUse">
<stop stop-color="#F5AD03"/>
<stop offset="1" stop-color="#D65A01"/>
</linearGradient>
<linearGradient id="paint4_linear_35_244" x1="16.875" y1="48.75" x2="16.875" y2="50.625" gradientUnits="userSpaceOnUse">
<stop stop-color="#F5AD03"/>
<stop offset="1" stop-color="#D65A01"/>
</linearGradient>
<linearGradient id="paint5_linear_35_244" x1="24.375" y1="48.75" x2="24.375" y2="50.625" gradientUnits="userSpaceOnUse">
<stop stop-color="#F5AD03"/>
<stop offset="1" stop-color="#D65A01"/>
</linearGradient>
<linearGradient id="paint6_linear_35_244" x1="35.625" y1="48.75" x2="35.625" y2="50.625" gradientUnits="userSpaceOnUse">
<stop stop-color="#F5AD03"/>
<stop offset="1" stop-color="#D65A01"/>
</linearGradient>
<linearGradient id="paint7_linear_35_244" x1="43.125" y1="48.75" x2="43.125" y2="50.625" gradientUnits="userSpaceOnUse">
<stop stop-color="#F5AD03"/>
<stop offset="1" stop-color="#D65A01"/>
</linearGradient>
<linearGradient id="paint8_linear_35_244" x1="50.625" y1="48.75" x2="50.625" y2="50.625" gradientUnits="userSpaceOnUse">
<stop stop-color="#F5AD03"/>
<stop offset="1" stop-color="#D65A01"/>
</linearGradient>
<linearGradient id="paint9_linear_35_244" x1="30" y1="7.5" x2="30" y2="31.875" gradientUnits="userSpaceOnUse">
<stop stop-color="#F5AD03"/>
<stop offset="1" stop-color="#D65A01"/>
</linearGradient>
</defs>
</svg>
