<svg width="80" height="80" viewBox="0 0 80 80" fill="none" xmlns="http://www.w3.org/2000/svg">
<g clip-path="url(#clip0_38_351)">
<path d="M1.32027 4.54312H11.237C14.7845 4.54754 17.6586 7.42269 17.6622 10.9707V59.4665C12.8586 60.0531 9.29343 64.2063 9.44005 69.0464C9.58666 73.8857 13.3957 77.8155 18.2266 78.1103C23.0575 78.4059 27.3174 74.9691 28.0512 70.1829H78.6796C79.409 70.1829 79.9999 69.5918 79.9999 68.8621C79.9999 68.1332 79.409 67.5414 78.6796 67.5414H28.077C27.5326 63.4472 24.377 60.1902 20.3035 59.5188V10.9715C20.2976 5.96485 16.2418 1.90751 11.237 1.90161H1.32027C0.590878 1.90161 0 2.49271 0 3.22237C0 3.95202 0.590878 4.54312 1.32027 4.54312ZM25.519 68.7619C25.519 72.4758 22.5094 75.4865 18.7961 75.4865C15.0836 75.4865 12.0739 72.4758 12.0739 68.7619C12.0739 65.0472 15.0836 62.0365 18.7961 62.0365C22.5071 62.0409 25.5146 65.0495 25.519 68.7619Z" fill="url(#paint0_linear_38_351)"/>
<path d="M32.7577 63.2767H75.3598C77.1575 63.2745 78.6141 61.8167 78.6163 60.0183V33.2178C78.6156 33.161 78.6119 33.1043 78.6038 33.0475C78.6023 33.0343 78.6001 33.021 78.5979 33.0077C78.5898 32.9583 78.5795 32.9104 78.5669 32.8625C78.5647 32.8559 78.5632 32.8485 78.561 32.8419C78.5448 32.7874 78.5249 32.7328 78.5014 32.6805C78.4977 32.6724 78.494 32.665 78.4896 32.6569C78.4689 32.6112 78.4446 32.567 78.4181 32.525C78.4152 32.5191 78.4122 32.5132 78.4093 32.5073L69.9653 19.2562C69.3693 18.3158 68.3327 17.7476 67.2194 17.7505H40.8981C39.7849 17.7476 38.7482 18.3165 38.1522 19.257L29.7082 32.508C29.7046 32.5139 29.7024 32.5198 29.6994 32.525C29.6729 32.5677 29.6486 32.6119 29.6272 32.6569C29.6235 32.665 29.6191 32.6731 29.6154 32.6812C29.5926 32.7335 29.5727 32.7874 29.5557 32.8426C29.5543 32.8493 29.5528 32.8559 29.5506 32.8633C29.5373 32.9104 29.527 32.9591 29.5196 33.0077C29.5174 33.021 29.5152 33.0343 29.513 33.0483C29.5056 33.1043 29.5012 33.161 29.5012 33.2178V60.0183C29.5034 61.8167 30.96 63.2738 32.7577 63.2767ZM59.2308 60.6352H48.886V42.1682L59.2315 46.5079L59.2308 60.6352ZM75.3591 60.6352H61.8713V45.6293C61.8713 45.0972 61.5523 44.6174 61.0616 44.411L48.0756 38.9644C47.6681 38.7934 47.2018 38.8376 46.8341 39.083C46.4658 39.3277 46.2447 39.7405 46.2447 40.1827V60.6352H32.7577C32.4173 60.6352 32.1418 60.3588 32.141 60.0191V34.5385H75.9758V60.0183C75.975 60.3588 75.6995 60.6345 75.3598 60.6352H75.3591ZM67.7388 20.6765L74.889 31.897H55.379V20.392H67.2194C67.4294 20.3913 67.6261 20.4989 67.7388 20.6765ZM40.3794 20.6765C40.4921 20.4981 40.6881 20.3905 40.8988 20.3913H52.7385V31.897H33.2292L40.3794 20.6765Z" fill="url(#paint1_linear_38_351)"/>
</g>
<defs>
<linearGradient id="paint0_linear_38_351" x1="39.9999" y1="1.90161" x2="39.9999" y2="78.128" gradientUnits="userSpaceOnUse">
<stop stop-color="#F5AD03"/>
<stop offset="1" stop-color="#D65A01"/>
</linearGradient>
<linearGradient id="paint1_linear_38_351" x1="54.0588" y1="17.7505" x2="54.0588" y2="63.2767" gradientUnits="userSpaceOnUse">
<stop stop-color="#F5AD03"/>
<stop offset="1" stop-color="#D65A01"/>
</linearGradient>
<clipPath id="clip0_38_351">
<rect width="80" height="80" fill="white"/>
</clipPath>
</defs>
</svg>
