<svg width="108" height="70" viewBox="0 0 108 70" fill="none" xmlns="http://www.w3.org/2000/svg">
<g clip-path="url(#clip0_129_209)">
<path fill-rule="evenodd" clip-rule="evenodd" d="M107.462 22.1768L0.431641 22.1768L0.431641 21.322L107.462 21.322L107.462 22.1768Z" fill="white"/>
<path d="M107.454 21.3235C65.4363 -17.2962 18.3195 5.23319 0.431641 21.3247H9.85145C55.7962 -14.8814 91.9931 9.84425 107.454 21.3235Z" fill="#CFAA7B"/>
<path d="M12.5171 42.9179H10.3922V41.1351H2.1249V42.9179H0V39.0382H1.35065C1.69476 38.7553 2.00159 38.3449 2.27115 37.8073C2.5407 37.264 2.67548 36.6754 2.67548 36.0415V28.7831H10.8568V39.0382H12.5171V42.9179ZM8.72328 39.0382V30.88H4.80038V36.0415C4.80038 37.5866 4.59965 38.5855 4.19818 39.0382H8.72328Z" fill="white"/>
<path d="M20.036 41.1351C18.8832 41.1351 17.8337 40.8578 16.8874 40.3032C15.9411 39.7429 15.1869 38.9958 14.6248 38.062C14.0628 37.1281 13.7817 36.0953 13.7817 34.9634C13.7817 33.8258 14.0628 32.7901 14.6248 31.8563C15.1869 30.9224 15.9411 30.1782 16.8874 29.6236C17.8337 29.0633 18.8832 28.7831 20.036 28.7831C21.1888 28.7831 22.2383 29.0633 23.1846 29.6236C24.131 30.1782 24.8851 30.9224 25.4472 31.8563C26.0092 32.7901 26.2903 33.8258 26.2903 34.9634C26.2903 36.0953 26.0092 37.1281 25.4472 38.062C24.8851 38.9958 24.131 39.7429 23.1846 40.3032C22.2383 40.8578 21.1888 41.1351 20.036 41.1351ZM20.036 39.0382C20.7988 39.0382 21.4928 38.8543 22.1179 38.4864C22.743 38.1186 23.2391 37.6262 23.6062 37.0093C23.979 36.3924 24.1654 35.7104 24.1654 34.9634C24.1654 34.2106 23.979 33.5258 23.6062 32.9089C23.2391 32.292 22.743 31.7997 22.1179 31.4318C21.4928 31.0639 20.7988 30.88 20.036 30.88C19.2732 30.88 18.5793 31.0639 17.9541 31.4318C17.329 31.7997 16.83 32.292 16.4572 32.9089C16.0902 33.5258 15.9066 34.2106 15.9066 34.9634C15.9066 35.7104 16.0902 36.3924 16.4572 37.0093C16.83 37.6262 17.329 38.1186 17.9541 38.4864C18.5793 38.8543 19.2732 39.0382 20.036 39.0382Z" fill="white"/>
<path d="M28.3033 41.1351V39.0382C28.8941 39.0382 29.2382 38.9562 29.3357 38.7921C29.3701 38.6789 29.3873 38.1837 29.3873 37.3064L29.3787 36.8565L29.3701 36.7631L29.3529 35.6255C29.3529 35.2916 29.3643 34.9096 29.3873 34.4795C29.4102 34.0437 29.5049 33.5654 29.6712 33.0448C30.1472 31.6072 31.0304 30.481 32.3209 29.666C33.3188 29.0491 34.4228 28.7407 35.6329 28.7407H38.3514V41.0927H36.2265V30.829H35.6071C34.8386 30.8517 34.1447 31.0441 33.5252 31.4063C32.9116 31.7629 32.4184 32.2496 32.0456 32.8665C31.6785 33.4834 31.495 34.1625 31.495 34.9039V38.6223C31.495 39.3014 31.2455 39.89 30.7465 40.3881C30.2476 40.8861 29.4332 41.1351 28.3033 41.1351Z" fill="white"/>
<path d="M46.8338 41.1351H40.6398V28.7831H42.7647V33.0193H46.8424C47.8748 33.0476 48.7637 33.3815 49.5093 34.021C49.9509 34.4002 50.3008 34.8558 50.5589 35.3878C50.817 35.9142 50.946 36.4773 50.946 37.0772C50.946 37.6941 50.817 38.2685 50.5589 38.8005C50.3065 39.3269 49.9595 39.7768 49.5179 40.1504C48.7551 40.8069 47.8604 41.1351 46.8338 41.1351ZM46.8338 39.0382C47.3844 39.0382 47.8518 38.8487 48.2361 38.4695C48.6261 38.0846 48.8211 37.6205 48.8211 37.0772C48.8211 36.5395 48.6261 36.0783 48.2361 35.6934C47.8518 35.3086 47.3844 35.1162 46.8338 35.1162H42.7647V39.0382H46.8338Z" fill="white"/>
<path d="M62.8007 41.1351H60.6672V36.1264C59.9102 36.6358 58.9839 36.8904 57.8885 36.8904C56.9995 36.8904 56.1823 36.6725 55.4367 36.2368C54.6968 35.7953 54.1032 35.2095 53.6559 34.4795C53.2143 33.7437 52.9935 32.9372 52.9935 32.06V28.7831H55.1184V32.06C55.1184 32.5637 55.2445 33.0221 55.4969 33.4353C55.7492 33.8484 56.0819 34.1795 56.4948 34.4285C56.9135 34.6775 57.3781 34.8021 57.8885 34.8021C58.4047 34.8021 58.8721 34.6775 59.2907 34.4285C59.7094 34.1795 60.0421 33.8484 60.2887 33.4353C60.541 33.0221 60.6672 32.5637 60.6672 32.06V28.7831H62.8007V41.1351Z" fill="white"/>
<path d="M73.2532 41.1351H65.0719V28.7831H73.2532V30.88H67.1968V33.0193H73.2532V35.1162H67.1968V39.0382H73.2532V41.1351Z" fill="white"/>
<path d="M81.4172 41.1351H79.2837V30.88H75.3781V28.7831H85.3229V30.88H81.4172V41.1351Z" fill="white"/>
<path d="M92.8418 41.1351H90.7083V30.88H86.8026V28.7831H96.7475V30.88H92.8418V41.1351Z" fill="white"/>
<path d="M108 41.1351H105.875V32.8325L100.051 41.1351H98.2272V28.7831H100.352V37.0348L106.185 28.7831H108V41.1351Z" fill="white"/>
<path fill-rule="evenodd" clip-rule="evenodd" d="M107.461 48.6751L0.43042 48.6751L0.43042 47.8203L107.461 47.8203L107.461 48.6751Z" fill="#CFAA7B"/>
<path d="M0.430771 48.6767C42.4487 87.2964 89.5655 64.767 107.453 48.6754H98.0336C52.0888 84.8816 15.8919 60.1559 0.430771 48.6767Z" fill="white"/>
</g>
<defs>
<clipPath id="clip0_129_209">
<rect width="108" height="70" fill="white"/>
</clipPath>
</defs>
</svg>
