<svg width="60" height="60" viewBox="0 0 60 60" fill="none" xmlns="http://www.w3.org/2000/svg">
<path d="M24.9786 33.0057L20.8018 26.7851C20.5493 26.4089 20.6495 25.8993 21.0255 25.6467C21.4021 25.3942 21.9116 25.4945 22.1639 25.8704L25.8399 31.3453L36.9621 22.314C37.3135 22.0283 37.8304 22.082 38.1159 22.4337C38.4016 22.7854 38.3479 23.3019 37.9963 23.5875L26.1769 33.1852C26.0298 33.3047 25.847 33.3687 25.6598 33.3687C25.6194 33.3687 25.5788 33.3657 25.5383 33.3596C25.3101 33.3255 25.1072 33.1971 24.9786 33.0057ZM37.5785 15.8046C35.1376 14.253 32.2686 13.4843 29.3369 13.6214C25.8123 13.7858 22.4959 15.2515 19.9988 17.7484C15.2063 22.541 14.4868 30.0836 18.288 35.6827C18.4467 35.9163 18.7047 36.0423 18.9674 36.0423C19.126 36.0423 19.2863 35.9964 19.4274 35.9005C19.8022 35.6461 19.8998 35.136 19.6453 34.7611C16.2856 29.8123 16.9222 23.1452 21.1589 18.9086C25.3528 14.7145 31.7728 14.0687 36.6549 17.1593L35.4185 17.2086C34.9659 17.2266 34.6135 17.6082 34.6316 18.0609C34.6492 18.5025 35.0127 18.8486 35.4506 18.8486C35.4616 18.8486 35.4726 18.8483 35.4839 18.8479L38.9543 18.7095C39.1996 18.6997 39.4275 18.5805 39.5757 18.3848C39.7238 18.1891 39.7766 17.9373 39.7194 17.6987L38.9101 14.3215C38.8046 13.8807 38.3612 13.6097 37.9213 13.7148C37.4806 13.8204 37.2091 14.2632 37.3146 14.7036L37.5785 15.8046ZM38.8412 36.5906C34.6474 40.7844 28.2275 41.4304 23.3451 38.3399L24.5816 38.2905C25.0342 38.2726 25.3865 37.8909 25.3685 37.4382C25.3505 36.9857 24.9746 36.6328 24.5162 36.6513L21.0457 36.7897C20.8004 36.7995 20.5725 36.9186 20.4242 37.1143C20.2761 37.3102 20.2234 37.5619 20.2806 37.8006L21.09 41.1778C21.1956 41.6183 21.6379 41.8894 22.0789 41.7844C22.5194 41.6788 22.791 41.2359 22.6855 40.7954L22.4216 39.6946C24.6776 41.1285 27.2994 41.8935 29.9973 41.8934C30.2187 41.8934 30.4411 41.8882 30.6634 41.8779C34.188 41.7135 37.5044 40.2478 40.0015 37.7509C44.794 32.9583 45.5135 25.4157 41.7123 19.8166C41.4578 19.4419 40.9476 19.3439 40.5729 19.5988C40.1981 19.8532 40.1005 20.3633 40.355 20.7382C43.7144 25.6869 43.078 32.3539 38.8412 36.5906ZM55.2606 8.61504V29.9686C55.2606 33.3662 54.443 36.7893 52.8307 40.1422C51.382 43.1549 49.3292 46.0454 46.7295 48.7335C42.0229 53.6002 35.8482 57.4072 30.2126 58.9173C30.1429 58.9361 30.0715 58.9453 30.0001 58.9453C29.9287 58.9453 29.8572 58.9361 29.7878 58.9174C24.152 57.4072 17.9774 53.6003 13.2708 48.7336C10.671 46.0455 8.6183 43.155 7.16963 40.1423C5.55725 36.7894 4.73975 33.3663 4.73975 29.9687V8.61504C4.73975 8.1873 5.06857 7.83129 5.49502 7.79731C12.5972 7.23234 18.5884 3.90176 22.3637 1.20738C22.5027 1.10801 22.6693 1.05469 22.8402 1.05469H37.1599C37.3308 1.05469 37.4974 1.10801 37.6364 1.20738C41.4117 3.90176 47.4029 7.23234 54.5051 7.79731C54.9317 7.83117 55.2606 8.18719 55.2606 8.61504ZM53.6199 9.36246C48.0136 8.76457 42.2535 6.46957 36.8986 2.69531H23.1016C17.7467 6.46957 11.9866 8.76457 6.38037 9.36246V29.9686C6.38037 43.3782 20.2686 54.5595 30.0002 57.2747C39.7318 54.5595 53.6201 43.3782 53.6201 29.9686V9.36246H53.6199ZM36.6692 4.16215C41.4936 7.44457 46.5074 9.56215 51.5714 10.4561C51.9634 10.5253 52.2491 10.8659 52.2491 11.2639V29.9691C52.2491 32.9918 51.4904 36.0574 49.9942 39.081C48.688 41.7203 46.8552 44.269 44.5467 46.656C40.4743 50.8666 35.1275 54.2883 30.244 55.8088C30.1645 55.8335 30.0824 55.8458 30.0001 55.8458C29.9178 55.8458 29.8357 55.8335 29.7562 55.8088C24.8727 54.2882 19.5259 50.8665 15.4536 46.656C13.145 44.269 11.3122 41.7204 10.006 39.081C8.50967 36.0574 7.75111 32.9918 7.75111 29.9691V11.2638C7.75111 10.8659 8.03682 10.5252 8.42881 10.4559C13.4928 9.56203 18.5066 7.44445 23.331 4.16203C23.467 4.06945 23.6278 4.01988 23.7924 4.01988H36.2079C36.3724 4.02 36.5332 4.06957 36.6692 4.16215ZM50.6085 11.945C45.6199 10.9611 40.6951 8.84941 35.9564 5.66062H24.0438C19.305 8.84941 14.3803 10.9611 9.39174 11.945V29.9691C9.39174 35.166 11.9633 40.687 16.633 45.5154C20.4546 49.467 25.4332 52.6853 30.0001 54.1649C34.5671 52.6853 39.5456 49.467 43.3673 45.5154C48.0369 40.687 50.6085 35.166 50.6085 29.9691V11.945Z" fill="url(#paint0_linear_35_236)"/>
<defs>
<linearGradient id="paint0_linear_35_236" x1="30.0002" y1="1.05469" x2="30.0002" y2="58.9453" gradientUnits="userSpaceOnUse">
<stop stop-color="#F5AD03"/>
<stop offset="1" stop-color="#D65A01"/>
</linearGradient>
</defs>
</svg>
