<svg width="29" height="32" viewBox="0 0 29 32" fill="none" xmlns="http://www.w3.org/2000/svg">
<path d="M26.2333 19.8077L20.3759 17.169L20.3598 17.1615C20.0557 17.0307 19.724 16.9783 19.3947 17.0088C19.0653 17.0394 18.7488 17.152 18.4736 17.3365C18.4412 17.358 18.4101 17.3814 18.3804 17.4065L15.3541 20.0002C13.4369 19.064 11.4575 17.089 10.5263 15.1865L13.1099 12.0977C13.1348 12.0665 13.1584 12.0352 13.1808 12.0015C13.3603 11.7256 13.4693 11.4094 13.4979 11.081C13.5266 10.7525 13.474 10.4221 13.3449 10.119V10.104L10.7128 4.20524C10.5421 3.80932 10.2487 3.4795 9.87624 3.26503C9.50381 3.05056 9.07238 2.96294 8.64635 3.01524C6.9616 3.23812 5.41516 4.06995 4.29585 5.35535C3.17655 6.64076 2.56093 8.29185 2.56398 10.0002C2.56398 19.9252 10.5959 28.0002 20.4679 28.0002C22.1672 28.0033 23.8095 27.3844 25.088 26.2591C26.3666 25.1338 27.194 23.579 27.4157 21.8852C27.4678 21.4571 27.3808 21.0234 27.1677 20.649C26.9546 20.2746 26.6268 19.9795 26.2333 19.8077ZM20.4679 26.0002C16.2485 25.9956 12.2033 24.3084 9.21968 21.3088C6.23611 18.3092 4.55791 14.2423 4.55331 10.0002C4.54863 8.7796 4.98605 7.59898 5.78387 6.67887C6.5817 5.75876 7.68538 5.16207 8.8888 5.00024C8.88831 5.00522 8.88831 5.01025 8.8888 5.01524L11.4998 10.8902L8.92983 13.9827C8.90374 14.0129 8.88005 14.0451 8.85896 14.079C8.67186 14.3676 8.5621 14.7 8.54031 15.0438C8.51853 15.3876 8.58546 15.7313 8.73463 16.0415C9.86108 18.3577 12.1824 20.674 14.5111 21.8052C14.8219 21.9538 15.1657 22.0188 15.509 21.9938C15.8522 21.9688 16.1831 21.8547 16.4694 21.6627C16.5013 21.6411 16.532 21.6178 16.5614 21.5927L19.5839 19.0002L25.4276 21.6315H25.4413C25.2823 22.8431 24.6896 23.9549 23.7743 24.759C22.8589 25.5631 21.6835 26.0044 20.4679 26.0002Z" fill="url(#paint0_linear_42_62)"/>
<defs>
<linearGradient id="paint0_linear_42_62" x1="14.9972" y1="3.00049" x2="14.9972" y2="28.0002" gradientUnits="userSpaceOnUse">
<stop stop-color="#F5AD03"/>
<stop offset="1" stop-color="#D65A01"/>
</linearGradient>
</defs>
</svg>
