<svg width="80" height="80" viewBox="0 0 80 80" fill="none" xmlns="http://www.w3.org/2000/svg">
<g clip-path="url(#clip0_38_354)">
<path d="M48.7267 19C47.9907 19 47.3933 19.5973 47.3933 20.3333V72.8107H44.1347V52.7547C44.1347 52.408 44 52.076 43.7587 51.8267L23.0253 30.4373C22.7747 30.1787 22.428 30.032 22.068 30.032H1.33333C0.597333 30.032 0 30.6293 0 31.3653V74.1427C0 74.8787 0.597333 75.476 1.33333 75.476H5.584C6.18267 78.2493 8.59333 80.3333 11.476 80.3333C14.3587 80.3333 16.7693 78.2493 17.3667 75.4773H26.768C27.3653 78.2493 29.776 80.3333 32.6587 80.3333C35.5413 80.3333 37.952 78.2493 38.5507 75.4773H48.728C49.464 75.4773 50.0613 74.88 50.0613 74.144V20.3333C50.06 19.5973 49.464 19 48.7267 19ZM11.476 77.6667C9.61467 77.6667 8.10133 76.0867 8.10133 74.144C8.10133 72.2013 9.61467 70.6213 11.476 70.6213C13.336 70.6213 14.8493 72.2013 14.8493 74.144C14.8493 76.0867 13.336 77.6667 11.476 77.6667ZM32.6587 77.6667C30.7987 77.6667 29.2853 76.0867 29.2853 74.144C29.2853 72.2013 30.7987 70.6213 32.6587 70.6213C34.52 70.6213 36.0333 72.2013 36.0333 74.144C36.0333 76.0867 34.52 77.6667 32.6587 77.6667ZM41.468 72.8107H38.5507C37.952 70.0387 35.5427 67.9547 32.6587 67.9547C29.7747 67.9547 27.3653 70.0387 26.768 72.8107H17.3667C16.7693 70.0387 14.3587 67.9547 11.476 67.9547C8.59333 67.9547 6.18267 70.0387 5.584 72.8107H2.66667V32.6987H21.5027L41.468 53.2947V72.8107Z" fill="url(#paint0_linear_38_354)"/>
<path d="M30.3613 52.7801H19.2586C18.5226 52.7801 17.9253 52.1828 17.9253 51.4468V39.5055C17.9253 38.7695 18.5226 38.1721 19.2586 38.1721C19.9946 38.1721 20.592 38.7695 20.592 39.5055V50.1135H30.3613C31.0973 50.1135 31.6946 50.7108 31.6946 51.4468C31.6946 52.1828 31.0973 52.7801 30.3613 52.7801Z" fill="url(#paint1_linear_38_354)"/>
<path d="M78.6666 65.7653H48.7266C47.9906 65.7653 47.3933 65.168 47.3933 64.432C47.3933 63.696 47.9906 63.0986 48.7266 63.0986H78.6666C79.4026 63.0986 80 63.696 80 64.432C80 65.168 79.4026 65.7653 78.6666 65.7653Z" fill="url(#paint2_linear_38_354)"/>
<path d="M74.9787 65.7654H55.5094C54.7734 65.7654 54.176 65.1681 54.176 64.4321V52.2921C54.176 51.5561 54.7734 50.9587 55.5094 50.9587H74.9787C75.7147 50.9587 76.312 51.5561 76.312 52.2921V64.4321C76.312 65.1681 75.7147 65.7654 74.9787 65.7654ZM56.8427 63.0987H73.6454V53.6254H56.8427V63.0987Z" fill="url(#paint3_linear_38_354)"/>
<path d="M74.9787 47.4348H55.5094C54.7734 47.4348 54.176 46.8375 54.176 46.1015V33.9615C54.176 33.2255 54.7734 32.6282 55.5094 32.6282H74.9787C75.7147 32.6282 76.312 33.2255 76.312 33.9615V46.1015C76.312 46.8375 75.7147 47.4348 74.9787 47.4348ZM56.8427 44.7682H73.6454V35.2948H56.8427V44.7682Z" fill="url(#paint4_linear_38_354)"/>
</g>
<defs>
<linearGradient id="paint0_linear_38_354" x1="25.0307" y1="19" x2="25.0307" y2="80.3333" gradientUnits="userSpaceOnUse">
<stop stop-color="#F5AD03"/>
<stop offset="1" stop-color="#D65A01"/>
</linearGradient>
<linearGradient id="paint1_linear_38_354" x1="24.81" y1="38.1721" x2="24.81" y2="52.7801" gradientUnits="userSpaceOnUse">
<stop stop-color="#F5AD03"/>
<stop offset="1" stop-color="#D65A01"/>
</linearGradient>
<linearGradient id="paint2_linear_38_354" x1="63.6966" y1="63.0986" x2="63.6966" y2="65.7653" gradientUnits="userSpaceOnUse">
<stop stop-color="#F5AD03"/>
<stop offset="1" stop-color="#D65A01"/>
</linearGradient>
<linearGradient id="paint3_linear_38_354" x1="65.244" y1="50.9587" x2="65.244" y2="65.7654" gradientUnits="userSpaceOnUse">
<stop stop-color="#F5AD03"/>
<stop offset="1" stop-color="#D65A01"/>
</linearGradient>
<linearGradient id="paint4_linear_38_354" x1="65.244" y1="32.6282" x2="65.244" y2="47.4348" gradientUnits="userSpaceOnUse">
<stop stop-color="#F5AD03"/>
<stop offset="1" stop-color="#D65A01"/>
</linearGradient>
<clipPath id="clip0_38_354">
<rect width="80" height="80" fill="white"/>
</clipPath>
</defs>
</svg>
