<svg width="60" height="60" viewBox="0 0 60 60" fill="none" xmlns="http://www.w3.org/2000/svg">
<path d="M41.2618 19.6046C38.2381 18.2652 34.2385 17.5275 29.9999 17.5275C25.7612 17.5275 21.7618 18.2652 18.7381 19.6048C15.4719 21.0517 13.6731 23.068 13.6729 25.2824L13.6728 25.2846V51.3076C13.6728 53.522 15.4717 55.5384 18.7381 56.9854C21.7618 58.3248 25.7612 59.0625 29.9999 59.0625C34.2386 59.0625 38.2381 58.3248 41.2618 56.9854C44.5282 55.5383 46.3271 53.522 46.3271 51.3076V25.2824C46.3271 23.068 44.5281 21.0517 41.2618 19.6046ZM40.5023 55.271C37.7125 56.5069 33.9828 57.1875 29.9999 57.1875C26.0172 57.1875 22.2873 56.5069 19.4976 55.271C16.9875 54.1591 15.5479 52.7145 15.5479 51.3076V48.4957C16.3633 49.2319 17.4332 49.901 18.7382 50.4791C21.7619 51.8186 25.7614 52.5563 30 52.5563C34.2387 52.5563 38.2382 51.8186 41.2619 50.4791C42.5669 49.901 43.6368 49.2319 44.4522 48.4957V51.3077C44.4521 52.7145 43.0124 54.1591 40.5023 55.271ZM40.5023 48.7648C37.7125 50.0006 33.9827 50.6813 29.9998 50.6813C26.0171 50.6813 22.2872 50.0006 19.4975 48.7648C16.9874 47.6529 15.5478 46.2082 15.5478 44.8014V41.9893C16.3632 42.7255 17.4331 43.3946 18.7381 43.9727C21.7618 45.3122 25.7612 46.0499 29.9999 46.0499C34.2386 46.0499 38.2381 45.3122 41.2618 43.9727C42.5668 43.3946 43.6367 42.7255 44.4521 41.9893V44.8014C44.4521 46.2082 43.0124 47.6529 40.5023 48.7648ZM40.5023 42.2584C37.7125 43.4943 33.9827 44.1749 29.9998 44.1749C26.0171 44.1749 22.2872 43.4943 19.4975 42.2584C16.9874 41.1465 15.5478 39.702 15.5478 38.295V35.483C16.3632 36.2191 17.4331 36.8883 18.7381 37.4664C21.7618 38.8058 25.7612 39.5435 29.9999 39.5435C34.2386 39.5435 38.2381 38.8058 41.2618 37.4664C42.5668 36.8883 43.6367 36.2191 44.4521 35.483V38.295C44.4521 39.702 43.0124 41.1465 40.5023 42.2584ZM40.5023 35.7521C37.7125 36.988 33.9827 37.6686 29.9998 37.6686C26.0171 37.6686 22.2872 36.988 19.4975 35.7521C16.9874 34.6403 15.5478 33.1956 15.5478 31.7888V28.9768C16.3632 29.713 17.4331 30.3821 18.7381 30.9602C21.7618 32.2997 25.7612 33.0374 29.9999 33.0374C34.2386 33.0374 38.2381 32.2997 41.2618 30.9602C42.5668 30.3821 43.6367 29.713 44.4521 28.9768V31.7889C44.4521 33.1956 43.0124 34.6403 40.5023 35.7521ZM40.5023 29.2458C37.7125 30.4816 33.9827 31.1623 29.9998 31.1623C26.0171 31.1623 22.2872 30.4816 19.4975 29.2458C16.9884 28.1344 15.5489 26.6905 15.5478 25.2841V25.283C15.5478 23.8758 16.9874 22.431 19.4975 21.319C22.2872 20.0831 26.0169 19.4025 29.9998 19.4025C33.9827 19.4025 37.7124 20.0831 40.5023 21.319C43.0124 22.4309 44.4521 23.8755 44.4521 25.2824C44.4521 26.6893 43.0124 28.1339 40.5023 29.2458ZM33.9044 26.8697C34.0028 27.5115 33.8352 28.1116 33.4197 28.605C32.7713 29.3749 31.7086 29.6704 30.9375 29.7829V29.9577C30.9375 30.4754 30.5178 30.8952 30 30.8952C29.4823 30.8952 29.0625 30.4754 29.0625 29.9577V29.7743C27.5895 29.5296 26.4784 28.7159 26.1118 27.5515C25.9562 27.0575 26.2305 26.5311 26.7244 26.3756C27.2178 26.2204 27.7446 26.4945 27.9002 26.9883C28.0868 27.581 29.0165 27.9968 30.1043 27.9755C30.9255 27.9599 31.7166 27.7168 31.9855 27.3974C32.0506 27.3202 32.0672 27.2586 32.0512 27.1541C31.9623 26.5745 30.8256 26.3074 29.8878 26.1855C27.0985 25.8229 26.4415 24.5805 26.3816 23.602C26.305 22.3538 27.1844 21.3171 28.6765 20.897C28.8021 20.8615 28.9312 20.8313 29.0627 20.8062V20.6073C29.0627 20.0896 29.4824 19.6698 30.0002 19.6698C30.5179 19.6698 30.9377 20.0896 30.9377 20.6073V20.8028C32.0222 21.0053 33.0341 21.5771 33.576 22.5988C33.8186 23.0562 33.6444 23.6237 33.1871 23.8663C32.7296 24.109 32.1623 23.9347 31.9196 23.4775C31.4791 22.6468 30.1569 22.428 29.1848 22.7018C28.7404 22.827 28.2298 23.1077 28.253 23.4873C28.276 23.8629 28.9775 24.1765 30.1294 24.3261C30.9836 24.4371 33.583 24.775 33.9044 26.8697ZM26.8103 12.0493C26.5197 11.621 26.6312 11.0379 27.0597 10.7473C27.4881 10.4564 28.0711 10.5683 28.3619 10.9966L29.0624 12.0291V1.875C29.0624 1.35727 29.4822 0.9375 29.9999 0.9375C30.5177 0.9375 30.9374 1.35727 30.9374 1.875V12.0289L31.6378 10.9966C31.9286 10.5684 32.5117 10.4566 32.94 10.7473C33.3685 11.0379 33.4802 11.621 33.1894 12.0495L30.7756 15.6068C30.6011 15.8638 30.3105 16.0179 29.9998 16.0179C29.689 16.0179 29.3985 15.8639 29.224 15.6067L26.8103 12.0493ZM51.6591 18.4787L49.2453 22.0362C49.0708 22.2933 48.7802 22.4474 48.4695 22.4474C48.1587 22.4474 47.8682 22.2934 47.6937 22.0362L45.28 18.4787C44.9894 18.0503 45.1011 17.4673 45.5294 17.1766C45.9579 16.8859 46.5408 16.9977 46.8316 17.4261L47.532 18.4584V8.30426C47.532 7.78652 47.9518 7.36676 48.4695 7.36676C48.9872 7.36676 49.407 7.78652 49.407 8.30426V18.4583L50.1074 17.426C50.3982 16.9977 50.9813 16.886 51.4096 17.1765C51.8382 17.4673 51.9498 18.0503 51.6591 18.4787ZM14.7198 18.4787L12.306 22.0362C12.1315 22.2933 11.841 22.4474 11.5302 22.4474C11.2194 22.4474 10.9289 22.2934 10.7544 22.0362L8.34074 18.4787C8.05011 18.0504 8.16167 17.4673 8.59011 17.1766C9.01867 16.8859 9.60156 16.9975 9.8923 17.4261L10.5928 18.4586V8.30426C10.5928 7.78652 11.0126 7.36676 11.5303 7.36676C12.0481 7.36676 12.4678 7.78652 12.4678 8.30426V18.4583L13.1683 17.426C13.459 16.9977 14.042 16.886 14.4705 17.1765C14.8988 17.4673 15.0105 18.0503 14.7198 18.4787Z" fill="url(#paint0_linear_35_228)"/>
<defs>
<linearGradient id="paint0_linear_35_228" x1="29.9999" y1="0.9375" x2="29.9999" y2="59.0625" gradientUnits="userSpaceOnUse">
<stop stop-color="#F5AD03"/>
<stop offset="1" stop-color="#D65A01"/>
</linearGradient>
</defs>
</svg>
