<svg width="80" height="80" viewBox="0 0 80 80" fill="none" xmlns="http://www.w3.org/2000/svg">
<path d="M49.0621 24.7319C35.7147 24.7319 24.856 35.5907 24.856 48.938C24.856 62.2854 35.7149 73.1441 49.0621 73.1441C62.4092 73.1441 73.2681 62.2854 73.2681 48.938C73.2681 35.5907 62.4092 24.7319 49.0621 24.7319ZM49.0621 70.0191C37.4378 70.0191 27.981 60.5622 27.981 48.938C27.981 37.3138 37.4378 27.8569 49.0621 27.8569C60.6863 27.8569 70.1431 37.3138 70.1431 48.938C70.1431 60.5622 60.6863 70.0191 49.0621 70.0191Z" fill="url(#paint0_linear_38_361)"/>
<path d="M63.8974 47.3754H51.7658C51.2252 46.4419 50.218 45.8124 49.0618 45.8124C48.7822 45.8124 48.5129 45.8526 48.2551 45.9215L45.3863 43.0527C44.7761 42.4427 43.7868 42.4427 43.1766 43.0527C42.5665 43.6629 42.5665 44.6522 43.1766 45.2626L46.0454 48.1312C45.9766 48.389 45.9365 48.6585 45.9365 48.9379C45.9365 50.664 47.3358 52.0633 49.0619 52.0633C50.2182 52.0633 51.2254 51.4338 51.766 50.5004H63.8976C64.7605 50.5004 65.4601 49.8007 65.4601 48.9379C65.4601 48.0751 64.7604 47.3754 63.8974 47.3754Z" fill="url(#paint1_linear_38_361)"/>
<path d="M49.062 18C38.9058 18 29.8777 22.9197 24.2334 30.5005H10C9.13703 30.5005 8.4375 31.2002 8.4375 32.063C8.4375 32.9258 9.13703 33.6255 10 33.6255H22.1869C21.2256 35.3059 20.4175 37.0847 19.7816 38.9428C19.75 38.9409 19.7186 38.938 19.6866 38.938H1.5625C0.699531 38.938 0 39.6377 0 40.5005C0 41.3633 0.699531 42.063 1.5625 42.063H18.895C18.503 43.7842 18.2541 45.5594 18.1633 47.3755H12.1878C11.3248 47.3755 10.6253 48.0752 10.6253 48.938C10.6253 49.8008 11.3248 50.5005 12.1878 50.5005H18.1633C18.4123 55.4827 19.8459 60.158 22.1869 64.2505H1.5625C0.699531 64.2505 0 64.9502 0 65.813C0 66.6758 0.699531 67.3755 1.5625 67.3755H24.2334C29.8775 74.9564 38.9058 79.8759 49.062 79.8759C66.1213 79.8759 80 65.9973 80 48.938C80 31.8786 66.1213 18 49.062 18ZM49.062 76.7509C33.7259 76.7509 21.2491 64.2741 21.2491 48.938C21.2491 33.6019 33.7258 21.125 49.062 21.125C64.3983 21.125 76.875 33.6019 76.875 48.938C76.875 64.2741 64.3981 76.7509 49.062 76.7509Z" fill="url(#paint2_linear_38_361)"/>
<path d="M49.0625 62.2114C48.65 62.2114 48.2484 62.3785 47.9563 62.6692C47.6656 62.9599 47.5 63.3628 47.5 63.7739C47.5 64.1849 47.6656 64.588 47.9563 64.8785C48.2484 65.1691 48.6516 65.3364 49.0625 65.3364C49.4734 65.3364 49.875 65.1692 50.1672 64.8785C50.4578 64.588 50.625 64.1849 50.625 63.7739C50.625 63.3628 50.4578 62.9599 50.1672 62.6692C49.8766 62.3786 49.4734 62.2114 49.0625 62.2114Z" fill="url(#paint3_linear_38_361)"/>
<path d="M49.0625 35.6646C49.4734 35.6646 49.8766 35.4974 50.1672 35.2067C50.4578 34.9161 50.625 34.513 50.625 34.1021C50.625 33.6911 50.4578 33.288 50.1672 32.9974C49.8766 32.7069 49.4734 32.5396 49.0625 32.5396C48.65 32.5396 48.2484 32.7067 47.9578 32.9974C47.6656 33.288 47.5 33.6911 47.5 34.1021C47.5 34.513 47.6656 34.9161 47.9578 35.2067C48.2484 35.4972 48.6516 35.6646 49.0625 35.6646Z" fill="url(#paint4_linear_38_361)"/>
<path d="M34.2266 47.3755C33.8156 47.3755 33.4125 47.5425 33.1219 47.8333C32.8312 48.1239 32.6641 48.5271 32.6641 48.938C32.6641 49.3489 32.8312 49.7521 33.1219 50.0425C33.4125 50.3331 33.8156 50.5005 34.2266 50.5005C34.6375 50.5005 35.0406 50.3333 35.3312 50.0425C35.6219 49.7521 35.7891 49.3489 35.7891 48.938C35.7891 48.5271 35.6219 48.1239 35.3312 47.8333C35.0406 47.5425 34.6375 47.3755 34.2266 47.3755Z" fill="url(#paint5_linear_38_361)"/>
<path d="M1.5625 58.938H10C10.863 58.938 11.5625 58.2383 11.5625 57.3755C11.5625 56.5127 10.863 55.813 10 55.813H1.5625C0.699531 55.813 0 56.5127 0 57.3755C0 58.2383 0.699531 58.938 1.5625 58.938Z" fill="url(#paint6_linear_38_361)"/>
<defs>
<linearGradient id="paint0_linear_38_361" x1="49.062" y1="24.7319" x2="49.062" y2="73.1441" gradientUnits="userSpaceOnUse">
<stop stop-color="#F5AD03"/>
<stop offset="1" stop-color="#D65A01"/>
</linearGradient>
<linearGradient id="paint1_linear_38_361" x1="54.0895" y1="42.5952" x2="54.0895" y2="52.0633" gradientUnits="userSpaceOnUse">
<stop stop-color="#F5AD03"/>
<stop offset="1" stop-color="#D65A01"/>
</linearGradient>
<linearGradient id="paint2_linear_38_361" x1="40" y1="18" x2="40" y2="79.8759" gradientUnits="userSpaceOnUse">
<stop stop-color="#F5AD03"/>
<stop offset="1" stop-color="#D65A01"/>
</linearGradient>
<linearGradient id="paint3_linear_38_361" x1="49.0625" y1="62.2114" x2="49.0625" y2="65.3364" gradientUnits="userSpaceOnUse">
<stop stop-color="#F5AD03"/>
<stop offset="1" stop-color="#D65A01"/>
</linearGradient>
<linearGradient id="paint4_linear_38_361" x1="49.0625" y1="32.5396" x2="49.0625" y2="35.6646" gradientUnits="userSpaceOnUse">
<stop stop-color="#F5AD03"/>
<stop offset="1" stop-color="#D65A01"/>
</linearGradient>
<linearGradient id="paint5_linear_38_361" x1="34.2266" y1="47.3755" x2="34.2266" y2="50.5005" gradientUnits="userSpaceOnUse">
<stop stop-color="#F5AD03"/>
<stop offset="1" stop-color="#D65A01"/>
</linearGradient>
<linearGradient id="paint6_linear_38_361" x1="5.78125" y1="55.813" x2="5.78125" y2="58.938" gradientUnits="userSpaceOnUse">
<stop stop-color="#F5AD03"/>
<stop offset="1" stop-color="#D65A01"/>
</linearGradient>
</defs>
</svg>
