<svg width="40" height="40" viewBox="0 0 40 40" fill="none" xmlns="http://www.w3.org/2000/svg">
<path d="M29.2045 16.4287C29.2045 14.6082 28.6647 12.8287 27.6533 11.315C26.6419 9.80139 25.2044 8.62165 23.5225 7.925C21.8407 7.22835 19.99 7.04608 18.2045 7.40123C16.4191 7.75638 14.779 8.633 13.4918 9.92024C12.2045 11.2075 11.3279 12.8475 10.9728 14.633C10.6176 16.4184 10.7999 18.2691 11.4965 19.951C12.1932 21.6328 13.3729 23.0704 14.8866 24.0817C16.4002 25.0931 18.1798 25.6329 20.0002 25.6329C22.4405 25.6303 24.7801 24.6597 26.5057 22.9341C28.2312 21.2086 29.2018 18.869 29.2045 16.4287ZM20.0002 24.2044C18.4623 24.2044 16.9589 23.7483 15.6802 22.8939C14.4015 22.0395 13.4049 20.8251 12.8164 19.4043C12.2278 17.9835 12.0739 16.42 12.3739 14.9117C12.6739 13.4033 13.4145 12.0178 14.5019 10.9304C15.5894 9.84294 16.9749 9.10238 18.4832 8.80235C19.9916 8.50232 21.555 8.65631 22.9758 9.24483C24.3967 9.83336 25.6111 10.83 26.4655 12.1087C27.3199 13.3874 27.7759 14.8908 27.7759 16.4287C27.7736 18.4902 26.9537 20.4667 25.4959 21.9244C24.0382 23.3821 22.0617 24.2021 20.0002 24.2044Z" fill="url(#paint0_linear_154_469)"/>
<path d="M23.7799 13.0658L18.5714 18.2758L16.2199 15.9229C16.0858 15.7888 15.9039 15.7135 15.7142 15.7135C15.5245 15.7135 15.3426 15.7888 15.2085 15.9229C15.0744 16.0571 14.999 16.239 14.999 16.4287C14.999 16.6183 15.0744 16.8002 15.2085 16.9344L18.0656 19.7915C18.132 19.858 18.2108 19.9108 18.2976 19.9468C18.3844 19.9828 18.4774 20.0014 18.5714 20.0014C18.6653 20.0014 18.7583 19.9828 18.8451 19.9468C18.9319 19.9108 19.0107 19.858 19.0771 19.7915L24.7914 14.0772C24.9255 13.9431 25.0008 13.7612 25.0008 13.5715C25.0008 13.3818 24.9255 13.1999 24.7914 13.0658C24.6572 12.9317 24.4753 12.8563 24.2856 12.8563C24.096 12.8563 23.914 12.9317 23.7799 13.0658Z" fill="url(#paint1_linear_154_469)"/>
<path d="M35.754 32.4915L31.6512 25.54C31.787 25.4278 31.9118 25.303 32.024 25.1672C32.4074 24.6563 32.6107 24.0328 32.6021 23.3942C32.5936 22.7555 32.3737 22.1377 31.9769 21.6372C31.8264 21.4418 31.7258 21.2126 31.6838 20.9695C31.6418 20.7265 31.6598 20.4769 31.736 20.2423C31.8123 20.0077 31.9446 19.7953 32.1215 19.6234C32.2984 19.4515 32.5145 19.3253 32.7512 19.2558C33.3609 19.0752 33.8958 18.7023 34.2763 18.1928C34.6567 17.6833 34.8623 17.0645 34.8623 16.4286C34.8623 15.7927 34.6567 15.1739 34.2763 14.6644C33.8958 14.1549 33.3609 13.7821 32.7512 13.6015C32.5145 13.5319 32.2984 13.4058 32.1215 13.2339C31.9446 13.062 31.8123 12.8495 31.736 12.6149C31.6598 12.3804 31.6418 12.1307 31.6838 11.8877C31.7258 11.6446 31.8264 11.4155 31.9769 11.22C32.3637 10.7157 32.577 10.0999 32.5852 9.46442C32.5934 8.82892 32.3959 8.20782 32.0222 7.69373C31.6486 7.17965 31.1187 6.80013 30.5117 6.61179C29.9047 6.42344 29.2531 6.43636 28.654 6.64862C28.4218 6.73174 28.1727 6.75689 27.9285 6.72191C27.6842 6.68692 27.4522 6.59284 27.2526 6.44785C27.053 6.30285 26.8918 6.11132 26.783 5.88988C26.6742 5.66845 26.6211 5.4238 26.6283 5.17719C26.6462 4.54104 26.4577 3.91621 26.0909 3.39611C25.7242 2.87602 25.1989 2.4886 24.5937 2.2918C23.9885 2.095 23.3359 2.09938 22.7334 2.3043C22.1309 2.50921 21.6109 2.90364 21.2512 3.42862C21.1058 3.62341 20.917 3.78158 20.6998 3.89054C20.4825 3.9995 20.2428 4.05624 19.9998 4.05624C19.7567 4.05624 19.517 3.9995 19.2998 3.89054C19.0825 3.78158 18.8937 3.62341 18.7483 3.42862C18.3887 2.90376 17.8688 2.50939 17.2665 2.30446C16.6641 2.09952 16.0116 2.09503 15.4065 2.29164C14.8014 2.48826 14.2761 2.87543 13.9093 3.39528C13.5424 3.91513 13.3537 4.53974 13.3712 5.17576C13.3784 5.42237 13.3253 5.66702 13.2165 5.88845C13.1077 6.10989 12.9465 6.30142 12.7469 6.44642C12.5473 6.59141 12.3153 6.68549 12.0711 6.72048C11.8268 6.75547 11.5778 6.73031 11.3455 6.64719C10.7464 6.43493 10.0948 6.42201 9.48781 6.61036C8.88082 6.7987 8.35097 7.17822 7.97729 7.69231C7.60362 8.20639 7.40614 8.8275 7.41431 9.46299C7.42248 10.0985 7.63585 10.7143 8.02262 11.2186C8.17315 11.4139 8.27381 11.643 8.31587 11.886C8.35793 12.129 8.34013 12.3785 8.26401 12.6131C8.18789 12.8476 8.05575 13.0601 7.87902 13.2321C7.70229 13.404 7.4863 13.5303 7.24976 13.6C6.63929 13.7798 6.10339 14.1523 5.72221 14.6619C5.34103 15.1715 5.13503 15.7908 5.13503 16.4272C5.13503 17.0636 5.34103 17.6829 5.72221 18.1925C6.10339 18.7021 6.63929 19.0746 7.24976 19.2543C7.48642 19.3239 7.70256 19.45 7.87945 19.6219C8.05634 19.7938 8.18866 20.0063 8.26492 20.2409C8.34119 20.4754 8.35912 20.7251 8.31714 20.9681C8.27517 21.2112 8.17457 21.4403 8.02405 21.6358C7.62733 22.136 7.40753 22.7536 7.39901 23.392C7.39048 24.0304 7.5937 24.6537 7.9769 25.1643C8.08911 25.3006 8.21395 25.4259 8.34976 25.5386L4.24548 32.4915C4.1737 32.6132 4.13965 32.7535 4.14762 32.8946C4.1556 33.0357 4.20524 33.1712 4.29027 33.2841C4.3753 33.3969 4.4919 33.482 4.62531 33.5286C4.75873 33.5752 4.90296 33.5812 5.03976 33.5458L9.88119 32.2986L11.1283 37.1429C11.1637 37.2798 11.239 37.4031 11.3445 37.4972C11.4501 37.5913 11.5812 37.6519 11.7212 37.6715C11.7539 37.676 11.7868 37.6784 11.8198 37.6786C11.9441 37.6787 12.0663 37.6463 12.1743 37.5847C12.2823 37.523 12.3723 37.4343 12.4355 37.3272L16.3298 30.73V30.7186H16.3483C16.8228 30.718 17.2898 30.6004 17.708 30.3761C18.1261 30.1518 18.4825 29.8279 18.7455 29.4329C18.8908 29.2381 19.0797 29.0799 19.2969 28.971C19.5142 28.862 19.7539 28.8053 19.9969 28.8053C20.24 28.8053 20.4796 28.862 20.6969 28.971C20.9142 29.0799 21.103 29.2381 21.2483 29.4329C21.5129 29.8303 21.872 30.1558 22.2934 30.3802C22.7147 30.6046 23.1852 30.7209 23.6626 30.7186V30.7315L27.5712 37.3243C27.6344 37.4314 27.7244 37.5202 27.8324 37.5818C27.9404 37.6435 28.0626 37.6758 28.1869 37.6758C28.2204 37.6755 28.2538 37.6731 28.2869 37.6686C28.425 37.6477 28.554 37.5868 28.6579 37.4933C28.7617 37.3999 28.8359 37.2781 28.8712 37.1429L30.1183 32.3015L34.9612 33.5486C35.0979 33.5836 35.2419 33.5774 35.3751 33.5307C35.5082 33.4839 35.6246 33.3988 35.7094 33.286C35.7942 33.1732 35.8437 33.0378 35.8516 32.8969C35.8596 32.756 35.8256 32.6159 35.754 32.4943V32.4915ZM12.0812 35.1129L11.0812 31.2558C11.0338 31.0724 10.9155 30.9154 10.7524 30.8192C10.5892 30.723 10.3946 30.6956 10.2112 30.7429L6.35405 31.7429L9.57119 26.2758C10.1546 26.4385 10.7743 26.4156 11.344 26.21C11.5763 26.1269 11.8254 26.1018 12.0696 26.1368C12.3139 26.1717 12.5459 26.2658 12.7455 26.4108C12.9451 26.5558 13.1063 26.7473 13.2151 26.9688C13.3239 27.1902 13.377 27.4349 13.3698 27.6815C13.3518 28.2213 13.4872 28.7551 13.7602 29.2211C14.0333 29.6871 14.4329 30.0662 14.9126 30.3143L12.0812 35.1129ZM22.4283 28.6215C22.1577 28.2272 21.7952 27.9048 21.3721 27.6821C20.9489 27.4593 20.4779 27.3429 19.9998 27.3429C19.5216 27.3429 19.0506 27.4593 18.6275 27.6821C18.2043 27.9048 17.8418 28.2272 17.5712 28.6215C17.3857 28.8928 17.1172 29.0967 16.8059 29.2024C16.4947 29.3082 16.1575 29.31 15.8451 29.2078C15.5327 29.1055 15.2619 28.9047 15.0734 28.6354C14.8849 28.3661 14.7889 28.0429 14.7998 27.7143C14.8135 27.2356 14.7102 26.7608 14.4989 26.331C14.2876 25.9013 13.9746 25.5295 13.5872 25.2481C13.1997 24.9666 12.7495 24.7839 12.2755 24.7158C11.8014 24.6477 11.3179 24.6962 10.8669 24.8572C10.5579 24.9678 10.2213 24.9753 9.90761 24.8786C9.59393 24.7819 9.32004 24.5861 9.12697 24.3206C8.93391 24.0552 8.83205 23.7343 8.83668 23.4061C8.8413 23.0779 8.95215 22.76 9.15262 22.5C9.44316 22.1211 9.63716 21.6771 9.71789 21.2065C9.79863 20.7358 9.76367 20.2526 9.61604 19.7984C9.46841 19.3443 9.21254 18.9329 8.87049 18.5997C8.52843 18.2665 8.11046 18.0214 7.65262 17.8858C7.33853 17.7925 7.06298 17.6003 6.86703 17.3377C6.67107 17.0751 6.56521 16.7563 6.56521 16.4286C6.56521 16.101 6.67107 15.7821 6.86703 15.5195C7.06298 15.257 7.33853 15.0647 7.65262 14.9715C8.11189 14.8366 8.53134 14.5917 8.87464 14.2581C9.21793 13.9245 9.47472 13.5123 9.62275 13.0571C9.77078 12.6019 9.8056 12.1174 9.72417 11.6457C9.64275 11.174 9.44755 10.7293 9.15548 10.35C8.95501 10.0901 8.84416 9.77223 8.83953 9.44401C8.83491 9.1158 8.93676 8.79491 9.12983 8.52944C9.3229 8.26398 9.59679 8.06821 9.91046 7.97148C10.2241 7.87476 10.5607 7.88227 10.8698 7.9929C11.3208 8.15317 11.8041 8.20117 12.2778 8.13276C12.7516 8.06434 13.2015 7.88157 13.5888 7.60024C13.976 7.3189 14.2889 6.94748 14.5004 6.51809C14.7119 6.08869 14.8156 5.61424 14.8026 5.13576C14.7943 4.80864 14.8919 4.48761 15.0809 4.22046C15.2699 3.9533 15.54 3.75433 15.8512 3.65317C16.1624 3.55201 16.498 3.55407 16.8079 3.65905C17.1178 3.76403 17.3855 3.96631 17.5712 4.23576C17.8418 4.62999 18.2043 4.95242 18.6275 5.17518C19.0506 5.39795 19.5216 5.51436 19.9998 5.51436C20.4779 5.51436 20.9489 5.39795 21.3721 5.17518C21.7952 4.95242 22.1577 4.62999 22.4283 4.23576C22.6138 3.96438 22.8824 3.76052 23.1936 3.6548C23.5049 3.54908 23.842 3.54721 24.1544 3.64946C24.4668 3.75172 24.7376 3.95258 24.9261 4.22188C25.1146 4.49118 25.2106 4.81437 25.1998 5.1429C25.1867 5.62155 25.2904 6.09619 25.502 6.52574C25.7135 6.95529 26.0266 7.32682 26.414 7.60819C26.8015 7.88956 27.2516 8.07228 27.7256 8.14056C28.1995 8.20884 28.6829 8.16061 29.134 8.00004C29.4431 7.88941 29.7797 7.8819 30.0933 7.97863C30.407 8.07536 30.6809 8.27112 30.874 8.53659C31.067 8.80206 31.1689 9.12294 31.1643 9.45116C31.1597 9.77938 31.0488 10.0973 30.8483 10.3572C30.5563 10.7364 30.3611 11.1812 30.2796 11.6529C30.1982 12.1246 30.233 12.609 30.3811 13.0642C30.5291 13.5194 30.7859 13.9317 31.1292 14.2653C31.4725 14.5989 31.8919 14.8437 32.3512 14.9786C32.6653 15.0719 32.9408 15.2641 33.1368 15.5267C33.3327 15.7893 33.4386 16.1081 33.4386 16.4358C33.4386 16.7634 33.3327 17.0823 33.1368 17.3448C32.9408 17.6074 32.6653 17.7997 32.3512 17.8929C31.8919 18.0278 31.4725 18.2727 31.1292 18.6062C30.7859 18.9398 30.5291 19.3521 30.3811 19.8073C30.233 20.2625 30.1982 20.747 30.2796 21.2187C30.3611 21.6904 30.5563 22.1351 30.8483 22.5143C31.0488 22.7743 31.1597 23.0921 31.1643 23.4204C31.1689 23.7486 31.067 24.0695 30.874 24.3349C30.6809 24.6004 30.407 24.7962 30.0933 24.8929C29.7797 24.9896 29.4431 24.9821 29.134 24.8715C28.6829 24.7109 28.1995 24.6627 27.7256 24.731C27.2516 24.7992 26.8015 24.982 26.414 25.2633C26.0266 25.5447 25.7135 25.9162 25.502 26.3458C25.2904 26.7753 25.1867 27.25 25.1998 27.7286C25.2088 28.0563 25.1117 28.378 24.9228 28.6459C24.7339 28.9137 24.4634 29.1133 24.1517 29.2147C23.84 29.3161 23.5039 29.314 23.1935 29.2086C22.8832 29.1032 22.6152 28.9003 22.4298 28.63L22.4283 28.6215ZM29.7826 30.7372C29.6917 30.7135 29.5971 30.7081 29.504 30.7211C29.411 30.734 29.3215 30.7652 29.2405 30.8129C29.1596 30.8605 29.0888 30.9237 29.0323 30.9987C28.9758 31.0737 28.9347 31.1591 28.9112 31.25L27.9112 35.1072L25.0855 30.3143C25.5652 30.0662 25.9648 29.6871 26.2378 29.2211C26.5109 28.7551 26.6463 28.2213 26.6283 27.6815C26.6211 27.4349 26.6742 27.1902 26.783 26.9688C26.8918 26.7473 27.053 26.5558 27.2526 26.4108C27.4522 26.2658 27.6842 26.1717 27.9285 26.1368C28.1727 26.1018 28.4218 26.1269 28.654 26.21C29.2242 26.4138 29.8435 26.4362 30.4269 26.2743L33.6483 31.7329L29.7826 30.7372Z" fill="url(#paint2_linear_154_469)"/>
<defs>
<linearGradient id="paint0_linear_154_469" x1="20.0002" y1="7.22437" x2="20.0002" y2="25.6329" gradientUnits="userSpaceOnUse">
<stop stop-color="#F5AD03"/>
<stop offset="1" stop-color="#D65A01"/>
</linearGradient>
<linearGradient id="paint1_linear_154_469" x1="19.9999" y1="12.8563" x2="19.9999" y2="20.0014" gradientUnits="userSpaceOnUse">
<stop stop-color="#F5AD03"/>
<stop offset="1" stop-color="#D65A01"/>
</linearGradient>
<linearGradient id="paint2_linear_154_469" x1="19.9996" y1="2.14734" x2="19.9996" y2="37.6786" gradientUnits="userSpaceOnUse">
<stop stop-color="#F5AD03"/>
<stop offset="1" stop-color="#D65A01"/>
</linearGradient>
</defs>
</svg>
