<svg width="40" height="40" viewBox="0 0 40 40" fill="none" xmlns="http://www.w3.org/2000/svg">
<path d="M23.125 9.375C23.125 9.20924 23.0592 9.05027 22.9419 8.93306C22.8247 8.81585 22.6658 8.75 22.5 8.75H17.5C17.3342 8.75 17.1753 8.81585 17.0581 8.93306C16.9408 9.05027 16.875 9.20924 16.875 9.375V16.25H15.625V17.5H24.375V16.25H23.125V9.375ZM20.625 12.5H21.875V13.75H20.625V12.5ZM19.375 13.75H18.125V12.5H19.375V13.75ZM21.875 11.25H20.625V10H21.875V11.25ZM19.375 10V11.25H18.125V10H19.375ZM18.125 15H19.375V16.25H18.125V15ZM20.625 16.25V15H21.875V16.25H20.625Z" fill="url(#paint0_linear_154_229)"/>
<path d="M1.25 37.5H38.75V38.75H1.25V37.5Z" fill="url(#paint1_linear_154_229)"/>
<path d="M25.0487 27.5C28.2306 23.7181 31.875 18.2669 31.875 13.125C31.875 9.97555 30.6239 6.9551 28.3969 4.72811C26.1699 2.50111 23.1494 1.25 20 1.25C16.8506 1.25 13.8301 2.50111 11.6031 4.72811C9.37611 6.9551 8.125 9.97555 8.125 13.125C8.125 18.2669 11.7694 23.7181 14.9513 27.5H1.25V28.75H16.0369C17.1567 30.0079 18.3407 31.207 19.5844 32.3425C19.6988 32.4444 19.8467 32.5007 20 32.5007C20.1533 32.5007 20.3012 32.4444 20.4156 32.3425C21.6593 31.207 22.8433 30.0079 23.9631 28.75H38.75V27.5H25.0487ZM20 31.0238C17.9888 29.125 9.375 20.5581 9.375 13.125C9.375 10.3071 10.4944 7.60456 12.487 5.61199C14.4796 3.61942 17.1821 2.5 20 2.5C22.8179 2.5 25.5204 3.61942 27.513 5.61199C29.5056 7.60456 30.625 10.3071 30.625 13.125C30.625 20.5519 22.0106 29.125 20 31.0238Z" fill="url(#paint2_linear_154_229)"/>
<path d="M5 32.5H7.5V33.75H5V32.5Z" fill="url(#paint3_linear_154_229)"/>
<path d="M10 32.5H12.5V33.75H10V32.5Z" fill="url(#paint4_linear_154_229)"/>
<path d="M15 32.5H17.5V33.75H15V32.5Z" fill="url(#paint5_linear_154_229)"/>
<path d="M22.5 32.5H25V33.75H22.5V32.5Z" fill="url(#paint6_linear_154_229)"/>
<path d="M27.5 32.5H30V33.75H27.5V32.5Z" fill="url(#paint7_linear_154_229)"/>
<path d="M32.5 32.5H35V33.75H32.5V32.5Z" fill="url(#paint8_linear_154_229)"/>
<path d="M20 5C18.393 5 16.8221 5.47652 15.486 6.36931C14.1498 7.2621 13.1084 8.53105 12.4935 10.0157C11.8785 11.5003 11.7176 13.134 12.0311 14.7101C12.3446 16.2862 13.1185 17.7339 14.2548 18.8702C15.3911 20.0065 16.8388 20.7804 18.4149 21.0939C19.991 21.4074 21.6247 21.2465 23.1093 20.6315C24.594 20.0166 25.8629 18.9752 26.7557 17.639C27.6485 16.3029 28.125 14.732 28.125 13.125C28.1225 10.9709 27.2657 8.90569 25.7425 7.3825C24.2193 5.8593 22.1541 5.00248 20 5ZM20 20C18.6403 20 17.311 19.5968 16.1805 18.8414C15.0499 18.0859 14.1687 17.0122 13.6483 15.7559C13.128 14.4997 12.9918 13.1174 13.2571 11.7838C13.5224 10.4501 14.1772 9.22513 15.1386 8.26364C16.1001 7.30215 17.3251 6.64737 18.6588 6.3821C19.9924 6.11683 21.3747 6.25298 22.631 6.77333C23.8872 7.29368 24.9609 8.17487 25.7164 9.30545C26.4718 10.436 26.875 11.7653 26.875 13.125C26.8729 14.9477 26.1478 16.6951 24.859 17.984C23.5701 19.2728 21.8227 19.9978 20 20Z" fill="url(#paint9_linear_154_229)"/>
<defs>
<linearGradient id="paint0_linear_154_229" x1="20" y1="8.75" x2="20" y2="17.5" gradientUnits="userSpaceOnUse">
<stop stop-color="#F5AD03"/>
<stop offset="1" stop-color="#D65A01"/>
</linearGradient>
<linearGradient id="paint1_linear_154_229" x1="20" y1="37.5" x2="20" y2="38.75" gradientUnits="userSpaceOnUse">
<stop stop-color="#F5AD03"/>
<stop offset="1" stop-color="#D65A01"/>
</linearGradient>
<linearGradient id="paint2_linear_154_229" x1="20" y1="1.25" x2="20" y2="32.5007" gradientUnits="userSpaceOnUse">
<stop stop-color="#F5AD03"/>
<stop offset="1" stop-color="#D65A01"/>
</linearGradient>
<linearGradient id="paint3_linear_154_229" x1="6.25" y1="32.5" x2="6.25" y2="33.75" gradientUnits="userSpaceOnUse">
<stop stop-color="#F5AD03"/>
<stop offset="1" stop-color="#D65A01"/>
</linearGradient>
<linearGradient id="paint4_linear_154_229" x1="11.25" y1="32.5" x2="11.25" y2="33.75" gradientUnits="userSpaceOnUse">
<stop stop-color="#F5AD03"/>
<stop offset="1" stop-color="#D65A01"/>
</linearGradient>
<linearGradient id="paint5_linear_154_229" x1="16.25" y1="32.5" x2="16.25" y2="33.75" gradientUnits="userSpaceOnUse">
<stop stop-color="#F5AD03"/>
<stop offset="1" stop-color="#D65A01"/>
</linearGradient>
<linearGradient id="paint6_linear_154_229" x1="23.75" y1="32.5" x2="23.75" y2="33.75" gradientUnits="userSpaceOnUse">
<stop stop-color="#F5AD03"/>
<stop offset="1" stop-color="#D65A01"/>
</linearGradient>
<linearGradient id="paint7_linear_154_229" x1="28.75" y1="32.5" x2="28.75" y2="33.75" gradientUnits="userSpaceOnUse">
<stop stop-color="#F5AD03"/>
<stop offset="1" stop-color="#D65A01"/>
</linearGradient>
<linearGradient id="paint8_linear_154_229" x1="33.75" y1="32.5" x2="33.75" y2="33.75" gradientUnits="userSpaceOnUse">
<stop stop-color="#F5AD03"/>
<stop offset="1" stop-color="#D65A01"/>
</linearGradient>
<linearGradient id="paint9_linear_154_229" x1="20" y1="5" x2="20" y2="21.25" gradientUnits="userSpaceOnUse">
<stop stop-color="#F5AD03"/>
<stop offset="1" stop-color="#D65A01"/>
</linearGradient>
</defs>
</svg>
