<svg width="40" height="40" viewBox="0 0 40 40" fill="none" xmlns="http://www.w3.org/2000/svg">
<path d="M16.6527 22.0038L13.8682 17.8567C13.6998 17.6059 13.7666 17.2662 14.0173 17.0978C14.2684 16.9295 14.608 16.9963 14.7763 17.247L17.227 20.8969L24.6417 14.876C24.876 14.6855 25.2206 14.7213 25.4109 14.9558C25.6014 15.1902 25.5656 15.5346 25.3312 15.725L17.4516 22.1234C17.3535 22.2031 17.2316 22.2458 17.1069 22.2458C17.0799 22.2458 17.0529 22.2438 17.0259 22.2398C16.8737 22.217 16.7384 22.1314 16.6527 22.0038ZM25.0527 10.5364C23.4254 9.50203 21.5127 8.98953 19.5583 9.08094C17.2085 9.19055 14.9976 10.1677 13.3329 11.8323C10.1379 15.0273 9.6582 20.0557 12.1923 23.7884C12.2981 23.9442 12.4702 24.0282 12.6452 24.0282C12.751 24.0282 12.8579 23.9976 12.952 23.9337C13.2018 23.7641 13.2669 23.424 13.0972 23.1741C10.8574 19.8748 11.2818 15.4302 14.1062 12.6057C16.9022 9.80969 21.1822 9.37914 24.437 11.4395L23.6127 11.4724C23.3109 11.4844 23.076 11.7388 23.088 12.0406C23.0998 12.335 23.3421 12.5657 23.6341 12.5657C23.6414 12.5657 23.6488 12.5655 23.6562 12.5652L25.9698 12.473C26.1334 12.4665 26.2853 12.387 26.3841 12.2566C26.4829 12.1261 26.518 11.9582 26.4799 11.7991L25.9404 9.54766C25.8701 9.25383 25.5745 9.07312 25.2812 9.1432C24.9874 9.21359 24.8064 9.50883 24.8767 9.80242L25.0527 10.5364ZM25.8945 24.3937C23.0986 27.1896 18.8187 27.6202 15.5637 25.5599L16.388 25.527C16.6898 25.5151 16.9247 25.2606 16.9127 24.9588C16.9006 24.6571 16.6501 24.4219 16.3445 24.4342L14.0308 24.5265C13.8673 24.533 13.7153 24.6124 13.6165 24.7429C13.5177 24.8734 13.4826 25.0413 13.5207 25.2004L14.0603 27.4519C14.1307 27.7455 14.4256 27.9263 14.7196 27.8563C15.0133 27.7859 15.1943 27.4906 15.124 27.197L14.948 26.463C16.452 27.419 18.1999 27.929 19.9985 27.9289C20.1461 27.9289 20.2944 27.9255 20.4426 27.9186C22.7923 27.809 25.0033 26.8319 26.668 25.1673C29.863 21.9722 30.3427 16.9438 27.8085 13.2111C27.6388 12.9613 27.2987 12.8959 27.0489 13.0659C26.7991 13.2355 26.734 13.5755 26.9037 13.8255C29.1433 17.1246 28.719 21.5693 25.8945 24.3937ZM36.8407 5.74336V19.9791C36.8407 22.2441 36.2956 24.5262 35.2208 26.7615C34.255 28.7699 32.8865 30.697 31.1534 32.489C28.0156 35.7334 23.8991 38.2715 20.142 39.2782C20.0956 39.2907 20.048 39.2969 20.0004 39.2969C19.9528 39.2969 19.9052 39.2907 19.8588 39.2783C16.1016 38.2715 11.9852 35.7335 8.8475 32.4891C7.1143 30.697 5.74586 28.77 4.78008 26.7616C3.70516 24.5263 3.16016 22.2442 3.16016 19.9791V5.74336C3.16016 5.4582 3.37937 5.22086 3.66367 5.1982C8.39844 4.82156 12.3926 2.60117 14.9095 0.804922C15.0021 0.738672 15.1132 0.703125 15.2271 0.703125H24.7736C24.8875 0.703125 24.9986 0.738672 25.0912 0.804922C27.6081 2.60117 31.6023 4.82156 36.337 5.1982C36.6215 5.22078 36.8407 5.45813 36.8407 5.74336ZM35.747 6.24164C32.0094 5.84305 28.1693 4.31305 24.5994 1.79688H15.4014C11.8315 4.31305 7.99141 5.84305 4.25391 6.24164V19.9791C4.25391 28.9188 13.5127 36.373 20.0005 38.1831C26.4882 36.373 35.747 28.9188 35.747 19.9791V6.24164H35.747ZM24.4465 2.77477C27.6627 4.96305 31.0052 6.37477 34.3813 6.9707C34.6426 7.01687 34.833 7.24391 34.833 7.5093V19.9794C34.833 21.9945 34.3273 24.0383 33.3298 26.054C32.459 27.8135 31.2371 29.5127 29.6981 31.104C26.9832 33.9111 23.4187 36.1922 20.163 37.2059C20.11 37.2223 20.0552 37.2305 20.0004 37.2305C19.9455 37.2305 19.8908 37.2223 19.8378 37.2059C16.5821 36.1921 13.0176 33.911 10.3027 31.104C8.76367 29.5127 7.5418 27.8136 6.67102 26.054C5.67344 24.0383 5.16773 21.9945 5.16773 19.9794V7.50922C5.16773 7.24391 5.3582 7.0168 5.61953 6.97062C8.99555 6.37469 12.338 4.96297 15.5543 2.77469C15.645 2.71297 15.7522 2.67992 15.862 2.67992H24.1389C24.2486 2.68 24.3558 2.71305 24.4465 2.77477ZM33.7393 7.96336C30.4136 7.30742 27.1304 5.89961 23.9712 3.77375H16.0295C12.8703 5.89961 9.58719 7.30742 6.26148 7.96336V19.9794C6.26148 23.444 7.97586 27.1247 11.089 30.3436C13.6367 32.978 16.9558 35.1235 20.0004 36.1099C23.0451 35.1235 26.3641 32.978 28.9119 30.3436C32.0249 27.1247 33.7393 23.444 33.7393 19.9794V7.96336Z" fill="url(#paint0_linear_154_221)"/>
<defs>
<linearGradient id="paint0_linear_154_221" x1="20.0004" y1="0.703125" x2="20.0004" y2="39.2969" gradientUnits="userSpaceOnUse">
<stop stop-color="#F5AD03"/>
<stop offset="1" stop-color="#D65A01"/>
</linearGradient>
</defs>
</svg>
