<svg width="40" height="40" viewBox="0 0 40 40" fill="none" xmlns="http://www.w3.org/2000/svg">
<g clip-path="url(#clip0_154_244)">
<path d="M39.5995 17.4805L36.6729 16.354C36.2416 14.3708 35.4671 12.5023 34.3668 10.7907L35.6406 7.92258C35.7455 7.68633 35.6942 7.40977 35.5113 7.22695L32.773 4.48875C32.5902 4.30602 32.3136 4.25469 32.0774 4.35953L29.2083 5.63383C27.4962 4.53352 25.6283 3.75906 23.6464 3.32805L22.5195 0.400469C22.4266 0.159219 22.1948 0 21.9362 0H18.0637C17.8051 0 17.5733 0.159219 17.4804 0.400469L16.3536 3.32797C14.3716 3.75898 12.5037 4.53336 10.7916 5.63375L7.9225 4.35945C7.68625 4.25453 7.40969 4.30594 7.22687 4.48875L4.48867 7.22703C4.30586 7.40984 4.25453 7.68633 4.35945 7.92266L5.63359 10.7914C4.5332 12.5031 3.75875 14.3713 3.32773 16.3538L0.400469 17.4805C0.159219 17.5734 0 17.8052 0 18.0638V21.9362C0 22.1948 0.159219 22.4266 0.400469 22.5195L3.32711 23.646C3.75844 25.6293 4.53289 27.4978 5.6332 29.2093L4.35937 32.0774C4.25445 32.3137 4.30578 32.5902 4.48867 32.773L7.22695 35.5113C7.40977 35.6941 7.68633 35.7453 7.92258 35.6405L10.7916 34.3662C12.5037 35.4666 14.3716 36.2409 16.3535 36.672L17.4804 39.5995C17.5733 39.8408 17.8051 40 18.0637 40H21.9362C22.1948 40 22.4266 39.8408 22.5195 39.5995L23.6459 36.6728C25.6292 36.2415 27.4977 35.467 29.2092 34.3667L32.0773 35.6405C32.3135 35.7455 32.5901 35.6941 32.7729 35.5113L35.5111 32.7729C35.6939 32.5901 35.7452 32.3136 35.6403 32.0773L34.3661 29.2083C35.4664 27.4962 36.2409 25.6283 36.6719 23.6463L39.5994 22.5195C39.8406 22.4266 39.9998 22.1948 39.9998 21.9362V18.0637C40 17.8052 39.8408 17.5733 39.5995 17.4805ZM38.75 21.5071L35.9047 22.6023C35.7041 22.6795 35.5573 22.8543 35.5159 23.0652C35.1116 25.1233 34.3115 27.0534 33.1377 28.802C33.018 28.9803 32.9983 29.2077 33.0855 29.404L34.324 32.1926L32.1927 34.324L29.405 33.0859C29.2087 32.9987 28.9813 33.0184 28.8029 33.1382C27.0551 34.3119 25.1245 35.1121 23.0649 35.5166C22.8541 35.558 22.6793 35.7048 22.6021 35.9054L21.5072 38.75H18.493L17.3977 35.9046C17.3205 35.7041 17.1457 35.5573 16.9348 35.5159C14.8767 35.1116 12.9466 34.3115 11.1982 33.1377C11.0198 33.018 10.7926 32.9984 10.5962 33.0854L7.80742 34.324L5.67609 32.1927L6.91414 29.4049C7.00133 29.2085 6.98156 28.9812 6.8618 28.8028C5.68813 27.0551 4.88789 25.1245 4.48336 23.0648C4.44195 22.854 4.29508 22.6791 4.09453 22.602L1.25 21.5071V18.4929L4.09508 17.3977C4.29562 17.3205 4.44242 17.1457 4.48391 16.9348C4.8882 14.876 5.68836 12.9459 6.86211 11.1978C6.98187 11.0195 7.00164 10.7921 6.91445 10.5957L5.67602 7.80742L7.80734 5.67609L10.5959 6.91461C10.7922 7.0018 11.0195 6.98203 11.198 6.86234C12.9465 5.68852 14.8766 4.88836 16.9348 4.48422C17.1456 4.44281 17.3205 4.29594 17.3976 4.09539L18.4928 1.25H21.5071L22.6024 4.09531C22.6796 4.29586 22.8544 4.44266 23.0652 4.48414C25.1233 4.88836 27.0534 5.68852 28.8019 6.86227C28.9802 6.98195 29.2075 7.00164 29.4039 6.91453L32.1926 5.67594L34.3239 7.80727L33.0859 10.5949C32.9987 10.7913 33.0184 11.0187 33.1382 11.197C34.3119 12.9448 35.1121 14.8754 35.5166 16.935C35.558 17.1459 35.7049 17.3206 35.9055 17.3978L38.75 18.4928V21.5071ZM20 9.60789C14.2698 9.60789 9.60797 14.2698 9.60797 19.9999C9.60797 25.7301 14.2698 30.392 20 30.392C25.7302 30.392 30.3921 25.7302 30.3921 20C30.3921 14.2698 25.7302 9.60789 20 9.60789ZM25.1002 27.5837L24.829 27.1139C24.6564 26.815 24.2741 26.7126 23.9752 26.8852C23.6763 27.0577 23.5739 27.44 23.7465 27.7389L24.0185 28.2101C22.982 28.7195 21.8355 29.0381 20.6252 29.1202V28.5753C20.6252 28.2302 20.3453 27.9503 20.0002 27.9503C19.655 27.9503 19.3752 28.2302 19.3752 28.5753V29.1202C18.1648 29.0381 17.0184 28.7195 15.9818 28.2101L16.2538 27.7389C16.4264 27.44 16.324 27.0577 16.0251 26.8852C15.726 26.7125 15.3438 26.8149 15.1713 27.1139L14.9001 27.5837C13.9214 26.9234 13.0768 26.0788 12.4165 25.1002L12.8863 24.8289C13.1852 24.6563 13.2877 24.2741 13.1151 23.9752C12.9425 23.6763 12.5602 23.5739 12.2613 23.7464L11.7902 24.0184C11.2807 22.9818 10.962 21.8354 10.8799 20.625H11.4249C11.7701 20.625 12.0499 20.3452 12.0499 20C12.0499 19.6548 11.7701 19.375 11.4249 19.375H10.8799C10.962 18.1646 11.2807 17.0182 11.7901 15.9816L12.2613 16.2536C12.3598 16.3105 12.4672 16.3374 12.5733 16.3374C12.7893 16.3374 12.9994 16.2253 13.1152 16.0248C13.2877 15.7259 13.1853 15.3437 12.8864 15.1711L12.4166 14.8998C13.0769 13.9212 13.9214 13.0766 14.9002 12.4162L15.1714 12.8861C15.2872 13.0866 15.4973 13.1987 15.7133 13.1987C15.8193 13.1987 15.9268 13.1716 16.0252 13.1148C16.3241 12.9423 16.4266 12.56 16.254 12.2611L15.982 11.7898C17.0185 11.2804 18.165 10.9618 19.3754 10.8797V11.4247C19.3754 11.7698 19.6552 12.0497 20.0004 12.0497C20.3455 12.0497 20.6254 11.7698 20.6254 11.4247V10.8797C21.8358 10.9618 22.9822 11.2805 24.0188 11.7899L23.7468 12.2611C23.5742 12.5601 23.6766 12.9423 23.9755 13.1148C24.074 13.1717 24.1814 13.1987 24.2875 13.1987C24.5035 13.1987 24.7136 13.0866 24.8294 12.8861L25.1006 12.4162C26.0793 13.0766 26.9239 13.9211 27.5841 14.8998L27.1143 15.1711C26.8154 15.3437 26.713 15.7259 26.8855 16.0248C27.0013 16.2253 27.2114 16.3374 27.4274 16.3374C27.5334 16.3374 27.6409 16.3104 27.7394 16.2536L28.2105 15.9816C28.72 17.0182 29.0386 18.1645 29.1207 19.375H28.5757C28.2305 19.375 27.9507 19.6548 27.9507 20C27.9507 20.3452 28.2305 20.625 28.5757 20.625H29.1206C29.0385 21.8354 28.7198 22.9818 28.2104 24.0184L27.7392 23.7464C27.4402 23.5738 27.058 23.6762 26.8855 23.9752C26.7129 24.2741 26.8153 24.6563 27.1142 24.8289L27.584 25.1002C26.9234 26.0788 26.0788 26.9234 25.1002 27.5837ZM24.3499 21.7897L21.9344 20.3951C21.9604 20.2673 21.9741 20.1352 21.9741 19.9999C21.9741 19.1298 21.408 18.3899 20.625 18.1278V13.788C20.625 13.4428 20.3452 13.163 20 13.163C19.6548 13.163 19.375 13.4428 19.375 13.788V18.1278C18.592 18.3899 18.0259 19.1298 18.0259 19.9999C18.0259 21.0884 18.9114 21.9741 20 21.9741C20.5014 21.9741 20.9595 21.7859 21.308 21.4768L23.7249 22.8722C23.8234 22.9291 23.9308 22.956 24.0369 22.956C24.2529 22.956 24.463 22.8439 24.5788 22.6434C24.7513 22.3445 24.6488 21.9623 24.3499 21.7897ZM20 20.7241C19.6007 20.7241 19.2759 20.3993 19.2759 20C19.2759 19.6007 19.6007 19.2759 20 19.2759C20.3993 19.2759 20.7241 19.6007 20.7241 20C20.7241 20.3993 20.3992 20.7241 20 20.7241ZM20 6.875C12.7629 6.875 6.875 12.7628 6.875 20C6.875 27.2372 12.7628 33.125 20 33.125C27.2372 33.125 33.125 27.2372 33.125 20C33.125 12.7628 27.2371 6.875 20 6.875ZM20 31.875C13.4521 31.875 8.125 26.5478 8.125 20C8.125 13.4522 13.4521 8.125 20 8.125C26.5479 8.125 31.875 13.4521 31.875 20C31.875 26.5479 26.5479 31.875 20 31.875Z" fill="url(#paint0_linear_154_244)"/>
</g>
<defs>
<linearGradient id="paint0_linear_154_244" x1="19.9999" y1="0" x2="19.9999" y2="40" gradientUnits="userSpaceOnUse">
<stop stop-color="#F5AD03"/>
<stop offset="1" stop-color="#D65A01"/>
</linearGradient>
<clipPath id="clip0_154_244">
<rect width="40" height="40" fill="white"/>
</clipPath>
</defs>
</svg>
