<svg width="40" height="40" viewBox="0 0 40 40" fill="none" xmlns="http://www.w3.org/2000/svg">
<path d="M27.5083 13.0698C25.4925 12.1768 22.8261 11.685 20.0004 11.685C17.1747 11.685 14.5083 12.1768 12.4925 13.0698C10.3151 14.0345 9.1159 15.3787 9.11574 16.8549L9.11567 16.8564V34.2051C9.11567 35.6813 10.315 37.0256 12.4925 37.9902C14.5083 38.8832 17.1747 39.375 20.0004 39.375C22.8262 39.375 25.4925 38.8832 27.5083 37.9902C29.686 37.0255 30.8852 35.6813 30.8852 34.2051V16.8549C30.8852 15.3787 29.6859 14.0345 27.5083 13.0698ZM27.002 36.8473C25.1422 37.6712 22.6557 38.125 20.0004 38.125C17.3453 38.125 14.8587 37.6712 12.9989 36.8473C11.3255 36.1061 10.3657 35.143 10.3657 34.2051V32.3305C10.9093 32.8212 11.6226 33.2673 12.4926 33.6527C14.5084 34.5457 17.1747 35.0375 20.0005 35.0375C22.8263 35.0375 25.4926 34.5457 27.5084 33.6527C28.3784 33.2673 29.0917 32.8212 29.6353 32.3305V34.2052C29.6352 35.143 28.6754 36.1061 27.002 36.8473ZM27.002 32.5098C25.1422 33.3338 22.6556 33.7875 20.0004 33.7875C17.3452 33.7875 14.8586 33.3338 12.9988 32.5098C11.3254 31.7686 10.3657 30.8055 10.3657 29.8676V27.9929C10.9093 28.4837 11.6225 28.9298 12.4925 29.3152C14.5083 30.2081 17.1747 30.6999 20.0004 30.6999C22.8262 30.6999 25.4925 30.2081 27.5083 29.3152C28.3783 28.9298 29.0916 28.4837 29.6352 27.9929V29.8676C29.6352 30.8055 28.6754 31.7686 27.002 32.5098ZM27.002 28.1723C25.1422 28.9962 22.6556 29.4499 20.0004 29.4499C17.3452 29.4499 14.8586 28.9962 12.9988 28.1723C11.3254 27.431 10.3657 26.468 10.3657 25.53V23.6553C10.9093 24.1461 11.6225 24.5922 12.4925 24.9776C14.5083 25.8705 17.1747 26.3623 20.0004 26.3623C22.8262 26.3623 25.4925 25.8705 27.5083 24.9776C28.3783 24.5922 29.0916 24.1461 29.6352 23.6553V25.53C29.6352 26.468 28.6754 27.431 27.002 28.1723ZM27.002 23.8348C25.1422 24.6587 22.6556 25.1124 20.0004 25.1124C17.3452 25.1124 14.8586 24.6587 12.9988 23.8348C11.3254 23.0935 10.3657 22.1304 10.3657 21.1925V19.3179C10.9093 19.8087 11.6225 20.2548 12.4925 20.6402C14.5083 21.5331 17.1747 22.0249 20.0004 22.0249C22.8262 22.0249 25.4925 21.5331 27.5083 20.6402C28.3783 20.2548 29.0916 19.8087 29.6352 19.3179V21.1926C29.6352 22.1304 28.6754 23.0935 27.002 23.8348ZM27.002 19.4972C25.1422 20.3211 22.6556 20.7748 20.0004 20.7748C17.3452 20.7748 14.8586 20.3211 12.9988 19.4972C11.3261 18.7563 10.3664 17.7937 10.3657 16.8561V16.8553C10.3657 15.9172 11.3254 14.954 12.9988 14.2127C14.8586 13.3888 17.3451 12.935 20.0004 12.935C22.6556 12.935 25.1421 13.3888 27.002 14.2127C28.6754 14.9539 29.6352 15.917 29.6352 16.8549C29.6352 17.7929 28.6754 18.7559 27.002 19.4972ZM22.6034 17.9131C22.669 18.341 22.5573 18.7411 22.2803 19.07C21.848 19.5833 21.1396 19.7802 20.6255 19.8552V19.9718C20.6255 20.317 20.3457 20.5968 20.0005 20.5968C19.6554 20.5968 19.3755 20.317 19.3755 19.9718V19.8495C18.3935 19.6864 17.6528 19.1439 17.4083 18.3677C17.3047 18.0384 17.4875 17.6874 17.8168 17.5837C18.1457 17.4802 18.4969 17.663 18.6006 17.9922C18.725 18.3873 19.3448 18.6645 20.07 18.6503C20.6175 18.6399 21.1449 18.4779 21.3242 18.2649C21.3675 18.2134 21.3786 18.1724 21.3679 18.1027C21.3087 17.7163 20.5509 17.5383 19.9257 17.457C18.0661 17.2152 17.6282 16.387 17.5882 15.7347C17.5372 14.9025 18.1234 14.2114 19.1182 13.9313C19.2019 13.9077 19.2879 13.8875 19.3756 13.8708V13.7382C19.3756 13.393 19.6554 13.1132 20.0006 13.1132C20.3457 13.1132 20.6256 13.393 20.6256 13.7382V13.8685C21.3486 14.0035 22.0232 14.3848 22.3845 15.0659C22.5462 15.3708 22.4301 15.7491 22.1252 15.9109C21.8202 16.0727 21.442 15.9565 21.2802 15.6516C20.9865 15.0979 20.1051 14.952 19.457 15.1345C19.1607 15.218 18.8204 15.4052 18.8358 15.6582C18.8511 15.9086 19.3188 16.1177 20.0868 16.2174C20.6562 16.2914 22.3892 16.5166 22.6034 17.9131ZM17.874 8.03289C17.6803 7.74734 17.7547 7.35859 18.0403 7.16484C18.3259 6.97094 18.7146 7.04555 18.9084 7.33109L19.3754 8.01938V1.25C19.3754 0.904844 19.6553 0.625 20.0004 0.625C20.3456 0.625 20.6254 0.904844 20.6254 1.25V8.0193L21.0924 7.33109C21.2862 7.04562 21.675 6.97109 21.9605 7.16484C22.2461 7.35859 22.3206 7.74734 22.1268 8.03297L20.5175 10.4045C20.4012 10.5759 20.2075 10.6786 20.0004 10.6786C19.7932 10.6786 19.5995 10.5759 19.4832 10.4045L17.874 8.03289ZM34.4399 12.3191L32.8307 14.6908C32.7143 14.8622 32.5206 14.9649 32.3135 14.9649C32.1063 14.9649 31.9126 14.8623 31.7963 14.6908L30.1872 12.3191C29.9934 12.0335 30.0679 11.6448 30.3534 11.4511C30.6391 11.2573 31.0277 11.3318 31.2215 11.6174L31.6885 12.3056V5.53617C31.6885 5.19102 31.9683 4.91117 32.3135 4.91117C32.6586 4.91117 32.9385 5.19102 32.9385 5.53617V12.3055L33.4054 11.6173C33.5993 11.3318 33.988 11.2573 34.2736 11.451C34.5593 11.6448 34.6337 12.0335 34.4399 12.3191ZM9.81371 12.3191L8.20449 14.6908C8.08817 14.8622 7.89449 14.9649 7.68731 14.9649C7.48012 14.9649 7.28645 14.8623 7.17012 14.6908L5.56098 12.3191C5.36723 12.0336 5.4416 11.6448 5.72723 11.4511C6.01293 11.2573 6.40153 11.3316 6.59535 11.6174L7.06238 12.3057V5.53617C7.06238 5.19102 7.34223 4.91117 7.68739 4.91117C8.03254 4.91117 8.31238 5.19102 8.31238 5.53617V12.3055L8.77934 11.6173C8.97317 11.3318 9.36184 11.2573 9.64746 11.451C9.93301 11.6448 10.0075 12.0335 9.81371 12.3191Z" fill="url(#paint0_linear_154_217)"/>
<defs>
<linearGradient id="paint0_linear_154_217" x1="20.0004" y1="0.625" x2="20.0004" y2="39.375" gradientUnits="userSpaceOnUse">
<stop stop-color="#F5AD03"/>
<stop offset="1" stop-color="#D65A01"/>
</linearGradient>
</defs>
</svg>
